<?xml version="1.0" encoding="utf-8"?>
<!-- Generator: Adobe Illustrator 16.0.0, SVG Export Plug-In . SVG Version: 6.00 Build 0)  -->
<!DOCTYPE svg PUBLIC "-//W3C//DTD SVG 1.1//EN" "http://www.w3.org/Graphics/SVG/1.1/DTD/svg11.dtd">
<svg version="1.1" id="Layer_1" xmlns="http://www.w3.org/2000/svg" xmlns:xlink="http://www.w3.org/1999/xlink" x="0px" y="0px"
	 width="49.785px" height="56.371px" viewBox="0 0 49.785 56.371" enable-background="new 0 0 49.785 56.371" xml:space="preserve">
<path d="M47.996,12.776L26.682,0.47c-1.086-0.627-2.492-0.627-3.579,0L1.788,12.775c-1.104,0.639-1.789,1.827-1.788,3.1v24.612
	c0,1.271,0.686,2.46,1.788,3.099L23.103,55.89c0.543,0.314,1.162,0.479,1.789,0.479c0.627,0,1.247-0.164,1.79-0.479l21.313-12.307
	c1.103-0.637,1.789-1.82,1.79-3.099V15.873C49.784,14.599,49.098,13.414,47.996,12.776 M35.678,41.822
	c-0.295,0.299-0.688,0.444-1.199,0.444h-0.133c-1.908,0-3.459-0.629-4.74-1.923c-1.282-1.293-1.906-2.84-1.906-4.729l-0.034-6.277
	c0-0.888-0.334-1.69-0.966-2.325c-1.279-1.278-3.429-1.244-4.678-0.02c-0.635,0.622-0.971,1.435-0.971,2.349v7.625
	c0,0.507-0.148,0.896-0.455,1.195c-0.311,0.303-0.71,0.447-1.222,0.447c-0.511,0-0.905-0.146-1.203-0.445
	c-0.295-0.293-0.441-0.688-0.441-1.197V13.785c0-0.507,0.144-0.9,0.442-1.201c0.298-0.3,0.691-0.446,1.202-0.446
	c0.511,0,0.911,0.148,1.223,0.452c0.306,0.297,0.454,0.688,0.454,1.195v9.793c0.274-0.155,0.568-0.301,0.851-0.402
	c0.915-0.326,1.608-0.453,2.473-0.453c1.888,0,3.435,0.624,4.728,1.908c1.291,1.284,1.918,2.824,1.918,4.71v6.273
	c0,0.909,0.334,1.729,0.967,2.358c0.632,0.633,1.447,0.967,2.359,0.967h0.133c0.506,0,0.896,0.147,1.194,0.455
	c0.304,0.312,0.449,0.713,0.449,1.226C36.122,41.13,35.977,41.522,35.678,41.822"/>
</svg>
