<?xml version="1.0" standalone="no"?>
<!DOCTYPE svg PUBLIC "-//W3C//DTD SVG 1.1//EN" "http://www.w3.org/Graphics/SVG/1.1/DTD/svg11.dtd" >
<svg xmlns="http://www.w3.org/2000/svg">
<metadata>Generated by IcoMoon</metadata>
<defs>
<font id="icons" horiz-adv-x="1024">
<font-face units-per-em="1024" ascent="960" descent="-64" />
<missing-glyph horiz-adv-x="1024" />
<glyph unicode="&#x20;" horiz-adv-x="512" d="" />
<glyph unicode="&#x53;" glyph-name="star" horiz-adv-x="1076" d="M538.948 960l166.070-336.486 371.324-53.96-268.698-261.906 63.436-369.838-332.132 174.61-332.132-174.61 63.422 369.838-268.696 261.906 371.334 53.96z" />
<glyph unicode="&#x73;" glyph-name="star-o" horiz-adv-x="1076" d="M538.948 813.88l123.128-249.468 275.296-40.012-199.23-194.172 5.746-33.512 41.294-240.672-246.234 129.446-246.246-129.456 47.030 274.184-199.206 194.184 275.306 40.012 123.116 249.466zM538.948 960l-166.072-336.486-371.334-53.96 268.698-261.906-63.434-369.836 332.142 174.608 332.132-174.608-63.444 369.836 268.708 261.906-371.324 53.96-166.072 336.486z" />
<glyph unicode="&#xe900;" glyph-name="arrow-down" d="M518.997 150.997l-518.997 480.427 86.955 93.909 432.043-399.915 431.957 399.915 86.997-93.909z" />
<glyph unicode="&#xe901;" glyph-name="exit" horiz-adv-x="1243" d="M608.39 108.282l-61.495 56.915 261.788 282.817-261.788 282.761 61.495 56.915 314.458-339.676zM0 489.904h865.738v-83.781h-865.738v83.781zM1242.752-64h-912.292v210.737h83.781v-126.956h744.73v856.438h-744.73v-126.928h-83.781v210.709h912.292z" />
<glyph unicode="&#xe902;" glyph-name="facebook" d="M511.987-64c-282.323 0-511.987 229.664-511.987 512.013s229.664 511.987 511.987 511.987c282.323 0 511.987-229.664 511.987-511.987s-229.664-512.013-511.987-512.013zM511.987 921.083c-260.858 0-473.071-212.212-473.071-473.071s212.212-473.071 473.071-473.071c260.858 0 473.071 212.212 473.071 473.071s-212.238 473.071-473.071 473.071zM746.325 245.301c0-14.53-11.761-26.292-26.292-26.292h-121.348v184.448h61.931l9.247 71.864h-71.178v45.902c0 20.805 5.766 34.979 35.614 34.979l38.053 0.025v64.268c-6.605 0.889-29.162 2.845-55.479 2.845-54.869 0-92.44-33.506-92.44-95.005v-53.015h-62.084v-71.864h62.084v-184.448h-228.114c-14.505 0-26.266 11.787-26.266 26.292v423.688c0 14.505 11.761 26.292 26.266 26.292h423.688c14.53 0 26.292-11.787 26.292-26.292v-423.688z" />
<glyph unicode="&#xe903;" glyph-name="arrow-up" d="M505.003 745.003l518.997-480.427-86.955-93.909-432.043 399.915-431.957-399.915-86.997 93.909z" />
<glyph unicode="&#xe904;" glyph-name="heart" d="M940.281 807.562c-53.718 53.691-125.094 83.248-201.036 83.248s-147.345-29.558-201.091-83.248l-26.43-26.458-26.486 26.458c-53.663 53.691-125.094 83.248-201.036 83.248s-147.345-29.558-201.036-83.248c-110.869-110.869-110.869-291.259 0-402.1l397.257-397.257c6.476-6.504 14.557-10.517 22.998-12.039 2.878-0.581 5.701-0.83 8.579-0.83 11.236 0 22.473 4.29 31.052 12.869l397.257 397.257c110.813 110.841 110.813 291.231-0.028 402.1zM878.149 467.594l-366.426-366.481-366.454 366.481c-76.634 76.606-76.634 201.23 0 277.891 37.113 37.113 86.459 57.51 138.932 57.51s101.819-20.397 138.932-57.51l57.538-57.565c16.495-16.467 45.637-16.467 62.104 0l57.538 57.565c37.113 37.113 86.431 57.51 138.96 57.51 52.473 0 101.819-20.397 138.932-57.51 76.579-76.662 76.579-201.313-0.055-277.891z" />
<glyph unicode="&#xe905;" glyph-name="instagram" d="M705.699 684.706h-362.579c-31.22 0-56.547-25.251-56.547-56.395v-362.833c0-31.17 25.327-56.42 56.547-56.42h362.579c31.22 0 56.522 25.251 56.522 56.42v362.833c0 31.144-25.302 56.395-56.522 56.395zM628.448 610.402c0 8.205 6.656 14.861 14.861 14.861h44.608c8.205 0 14.861-6.656 14.861-14.861v-44.608c0-8.205-6.656-14.861-14.861-14.861h-44.608c-8.205 0-14.861 6.656-14.861 14.861v44.608zM524.956 537.597c50.527 0 91.477-40.874 91.477-91.248 0-50.4-40.924-91.273-91.477-91.273-50.501 0-91.451 40.874-91.451 91.273 0 50.374 40.95 91.248 91.451 91.248zM717.638 268.552c0-8.205-6.656-14.886-14.861-14.886h-356.736c-8.205 0-14.861 6.681-14.861 14.886v222.938h59.443c-7.748-11.152-10.364-31.957-10.364-45.141 0-79.588 64.956-144.366 144.696-144.366 79.791 0 144.696 64.778 144.696 144.366 0 13.184-1.88 33.685-11.457 45.141h59.443v-222.938zM512-64c-282.33 0-512 229.67-512 512s229.67 512 512 512 512-229.67 512-512c0.025-282.33-229.644-512-512-512zM512 921.082c-260.89 0-473.082-212.218-473.082-473.082s212.218-473.082 473.082-473.082c260.865 0 473.082 212.218 473.082 473.082s-212.218 473.082-473.082 473.082z" />
<glyph unicode="&#xe906;" glyph-name="search" d="M998.938 82.071l-222.464 222.464c-1.176 1.171-2.557 1.999-3.794 3.089 43.768 66.401 69.315 145.902 69.315 231.377-0.005 232.512-188.489 421-421 421s-420.995-188.489-420.995-421c0-232.507 188.483-420.995 420.995-420.995 85.474 0 164.956 25.543 231.351 69.315 1.099-1.237 1.918-2.618 3.114-3.794l222.464-222.464c33.418-33.418 87.586-33.418 121.009 0 33.423 33.423 33.423 87.591 0.005 121.009zM420.995 263.942c-151.911 0-275.057 123.147-275.057 275.062s123.147 275.062 275.057 275.062 275.057-123.147 275.057-275.062c0-151.916-123.147-275.062-275.057-275.062z" />
<glyph unicode="&#xe907;" glyph-name="share" horiz-adv-x="1063" d="M836.418 960v0 0l-59.142-54.762 138.301-149.399h-297.588c-140.236 0-254.354-114.118-254.354-254.354v-341.145h80.611v341.145c0 95.793 77.924 173.743 173.743 173.743h297.588l-138.301-149.426 59.142-54.762 226.328 244.493-226.328 244.466zM519.94 513.899h135.883v-497.288l-575.212-0.027v497.315h216.171v80.611h-296.782v-658.537l736.434 0.027v658.51h-216.494z" />
<glyph unicode="&#xe908;" glyph-name="twitter" d="M735.573 643.325c-19.281-11.711-40.594-20.221-63.355-24.768-18.138 19.865-44.049 32.262-72.755 32.262-54.998 0-99.631-45.776-99.631-102.222 0-8.027 0.838-15.801 2.591-23.269-82.89 4.268-156.305 44.913-205.511 106.82-8.586-15.14-13.464-32.719-13.464-51.441 0-35.437 17.554-66.734 44.328-85.075-16.334 0.508-31.703 5.157-45.167 12.752v-1.27c0-49.536 34.37-90.867 79.969-100.215-8.332-2.413-17.173-3.607-26.241-3.607-6.402 0-12.676 0.635-18.773 1.829 12.702-40.62 49.485-70.189 93.128-70.951-34.116-27.435-77.124-43.82-123.815-43.82-8.027 0-15.979 0.508-23.803 1.423 44.125-28.96 96.557-45.903 152.851-45.903 183.385 0 283.626 155.747 283.626 290.84 0 4.446-0.076 8.891-0.254 13.235 19.484 14.429 36.377 32.414 49.714 52.915-17.858-8.129-37.114-13.641-57.284-16.080 20.602 12.651 36.403 32.694 43.846 56.547zM511.975-64c-282.305 0-511.975 229.67-511.975 512s229.67 512 511.975 512c282.356 0 512.025-229.67 512.025-512s-229.67-512-512.025-512zM511.975 921.082c-260.865 0-473.082-212.218-473.082-473.082s212.218-473.082 473.082-473.082c260.89 0 473.082 212.218 473.082 473.082s-212.192 473.082-473.082 473.082z" />
<glyph unicode="&#xe909;" glyph-name="youtube" d="M676.561 669.795h-329.097c-62.111 0-132.477 0-132.477-132.477v-151.072c0-99.402 30.001-132.477 132.477-132.477h329.123c89.013 0 132.477 9.272 132.477 132.477v151.047c-4.192 131.461-57.97 132.503-132.503 132.503zM449.915 348.953v223.141l173.859-111.571-173.859-111.571zM512-64c-282.33 0-512 229.67-512 512s229.67 512 512 512c282.33 0 512-229.67 512-512s-229.67-512-512-512zM512 921.082c-260.865 0-473.082-212.218-473.082-473.082 0-260.89 212.218-473.082 473.082-473.082s473.082 212.218 473.082 473.082c0 260.865-212.218 473.082-473.082 473.082z" />
<glyph unicode="&#xe90a;" glyph-name="arrow-left" d="M223.567 441.205l466.563 504.021 91.199-84.446-388.374-419.576 388.374-419.492-91.199-84.487z" />
<glyph unicode="&#xe90b;" glyph-name="arrow-right" d="M800.432 454.795l-466.563-504.020-91.199 84.446 388.374 419.576-388.374 419.492 91.199 84.487z" />
<glyph unicode="&#xe90c;" glyph-name="favicon" horiz-adv-x="904" d="M871.881 727.915l-387.202 223.547c-19.71 11.39-45.251 11.39-64.997 0l-387.202-223.529c-20.055-11.608-32.498-33.189-32.48-56.314v-447.094c0-23.089 12.462-44.688 32.48-56.277l387.202-223.529c9.864-5.704 21.109-8.701 32.498-8.701s22.653 2.997 32.498 8.701l387.184 223.547c20.019 11.572 32.498 33.080 32.517 56.295v447.094c-0.018 23.143-12.48 44.669-32.498 56.259zM648.116 200.274c-5.359-5.413-12.498-8.066-21.781-8.066h-2.434c-34.642 0-62.817 11.426-86.087 34.933-23.307 23.488-34.642 51.591-34.642 85.906l-0.618 114.026c0 16.131-6.067 30.7-17.548 42.235-23.234 23.216-62.29 22.598-84.979 0.363-11.535-11.299-17.639-26.068-17.639-42.671v-138.532c0-9.192-2.689-16.276-8.265-21.69-5.65-5.522-12.898-8.138-22.198-8.138-9.283 0-16.44 2.652-21.853 8.102-5.359 5.304-8.011 12.48-8.011 21.726v421.117c0 9.21 2.616 16.349 8.029 21.817 5.413 5.45 12.552 8.102 21.835 8.102s16.549-2.689 22.217-8.211c5.559-5.395 8.247-12.498 8.247-21.708v-177.897c4.977 2.816 10.318 5.468 15.459 7.303 16.622 5.922 29.21 8.229 44.924 8.229 34.279 0 62.381-11.335 85.887-34.66 23.452-23.325 34.842-51.3 34.842-85.56v-113.953c0-16.531 6.067-31.408 17.548-42.853 11.481-11.499 26.304-17.566 42.853-17.566h2.434c9.192 0 16.276-2.689 21.69-8.265 5.504-5.668 8.156-12.952 8.156-22.253 0-9.283-2.634-16.385-8.066-21.835z" />
<glyph unicode="&#xe90d;" glyph-name="instagram-logo" horiz-adv-x="3617" d="M95.424 890.758c68.379 67.102 110.75 69.104 110.75 69.104s13.358 2.002 45.701-9.337c32.36-11.356 33.706-28.719 33.706-28.719v-491.1c4.142-137.466-30.030-190.313-71.072-227.040-23.317-18.95-42.060-21.366-44.355-21.366-5.678 0-10.010 0.673-11.011 8.336s6.006 27.7 6.006 27.7c20.676 52.415 19.019 143.248 19.019 143.248l2.002 529.173c0 0 1.657 9.682-6.679 6.679-80.737-69.449-90.747-167.272-93.405-214.682-1.346-71.106 29.513-107.833 29.513-107.833s8.008-7.007 7.007-17.034c0-13.514-12.513-12.513-12.513-12.513-30.358 2.83-78.735 37.227-96.080 78.614-14.377 30.6-14.014 63.616-14.014 63.616 1.018 41.559 27.027 136.051 95.424 203.154zM3617.499 421.508c0-157.935-95.683-155.416-95.683-155.416-91.006-3.245-114.34 92.973-120.070 190.796-4.332 73.54 0 155.398 0 155.398s-0.621 3.797-3.141 0c-30.445-55.263-51.138-139.141-61.286-204.034-7.37-47.099-8.129-86.57-8.129-86.57s1.243-8.837-6.248-13.893c-49.412-22.747-81.289 9.475-92.559 45.494-15.015 34.103-23.765 239.432-23.765 250.167s-8.75 2.52-8.75 2.52c-68.172-114.34-68.794-282.389-68.794-316.509 0-34.103-58.162-23.368-58.162-23.368-49.395 3.797-47.531 27.787-47.531 27.787l-2.244 40.765c-17.173-31.67-49.084-72.78-98.168-69.622-74.282 4.798-88.693 81.72-89.746 94.716 0 0-37.020-95.786-138.726-94.716-69.104 1.087-96.856 72.522-96.856 72.522s-27.735-74.679-95.735-71.969c-68.017 2.71-124.056 81.168-119.707 182.909s20.124 152.62 20.124 152.62 5.437 10.286-3.814 10.821c-9.233 0.535-68-1.087-68-1.087s-33.171-133.134-173.537-298.716c0 0 1.122-51.776 1.070-109.335-0.069-108.869-13.583-254.913-161.025-266.804-127.56 8.629-120.38 106.953-120.38 106.953-3.038 28.909 15.24 82.135 91.247 153.603 76.042 71.469 106.47 98.841 106.47 98.841l-3.055 45.65c-48.653-80.599-123.176-76.042-123.176-76.042s-57.541-11.701-105.935 73.92c-14.239-29.34-46.564-79.356-99.463-73.54-74.299 8.181-89.055 82.342-90.16 95.407 0 0-37.141-96.511-139.313-95.407-69.398 1.070-97.253 73.057-97.253 73.057-8.043 14.584-14.239 36.692-17.483 49.723-0.811-2.641-1.778-5.54-3.089-8.94-15.74-40.282-54.71-110.474-114.478-111.371-109.852 0-114.478 170.379-114.478 170.379-31.773-75.576-93.974-172.381-209.781-171.725-115.789 0.673-129.7 42.439-129.7 48.428 0 5.972-1.985 12.582 11.253 31.825s24.49 27.183 33.758 27.183c9.251 0 25.802-13.945 25.802-13.945s25.146-24.525 53.606-24.525c36.382 1.329 44.321 30.514 46.978 60.32 2.641 29.84-18.536 61.666-47.652 88.193-29.116 26.51-51.621 46.392-51.621 46.392-41.68-70.278-73.436-117.999-96.598-159.109-56.246-91.489-112.079-105.641-133.67-102.759-29.789 3.97-58.231 34.483-59.56 123.331-1.329 88.814 6.627 240.64 6.627 248.613 0 7.956-7.283 3.987-7.283 3.987-111.181-118.033-144.266-360.675-144.266-365.317 0-4.66-9.924-9.941-19.848-9.941s3.314 0.656-36.399 2.002c-39.695 1.312-37.055 76.888-37.055 76.888l2.658 361.348c0.656 11.926 11.909 17.224 49.619 7.283 37.728-9.941 36.399-22.54 36.399-22.54l-1.329-209.505c97.271 287.066 170.724 241.986 215.062 220.102 44.338-21.867 38.384-53.692 38.384-53.692s-4.625-157.797-6.61-213.492c-1.985-55.694 5.954-77.561 18.519-79.529 31.1-7.318 141.609 206.174 141.609 206.174-48.963 53.054-22.229 117.791 15.878 145.871 25.905 19.071 57.575 21.211 57.575 21.211s49.636 2.641 48.307-39.126c1.312-45.736-49.636-101.43-49.636-101.43 98.6-70.278 144.922-107.402 152.205-161.767 3.262-26.061-2.641-42.422-2.641-42.422 70.14 60.975 75.421 129.269 75.421 129.269l1.329 228.075-103.881 1.312c0 0-7.939 0.673-9.268 19.899 0 36.468 19.192 51.725 19.192 51.725l99.255-1.329c0 0 3.314 102.759 3.97 119.345 3.296 23.852 18.519 27.183 62.201 15.895 43.682-11.27 43.682-21.211 43.682-21.211l-5.298-120.001c0 0 109.179-5.298 123.746-6.627s19.192-5.316 15.878-29.84c-3.314-24.525-17.863-30.496-17.863-30.496l-123.090-2.658-8.543-264.526c0-41.093 1.985-137.898 40.368-137.225 53.589-2.658 85.362 117.343 85.362 117.343l0.587 0.949c-0.604 18.709-0.207 41.145 2.433 66.308 10.183 96.425 53.157 209.401 151.878 209.401 0 0 60.112 2.175 91.8-57.8l1.105 21.815c0 0-2.192 26.164 39.333 19.623s55.729-22.902 54.624-35.985c0 0-7.628-167.946-3.262-267.201 5.557-57.662 15.464-91.713 44.787-89.418 25.267 3.693 43.233 38.263 54.106 67.706-36.727 305.377 130.425 342.398 130.425 342.398s73.954 5.419 107.695-56.281l1.087 20.573c0 0-3.262 27.045 35.916 19.485 0 0 16.292-2.175 33.724-8.664 17.414-6.489 22.833-10.821 22.833-27.062s-3.245-301.563-3.245-301.563 87.036 116.894 108.8 230.543c0 0-30.462 22.73-28.27 55.194 2.157 32.481 18.484 71.434 66.343 71.434 47.893 0 50.068-42.215 42.439-71.434 0 0 40.265 5.419 75.11 14.066 34.811 8.664 81.6 14.083 84.862-40.040 2.175-19.485-6.558-34.638-6.558-34.638s-27.165-120.139-22.833-168.843c4.366-48.704 17.431-122.296 55.504-113.649 38.073 8.664 51.138 62.788 51.138 62.788s-15.309 62.615-7.611 135.292c10.114 95.666 52.916 207.796 151.256 207.796 0 0 59.836 2.175 91.403-57.351l1.070 21.643c0 0-2.192 25.975 39.195 19.485 41.335-6.507 55.487-22.73 54.365-35.708 0 0-7.594-166.686-3.245-265.182 5.523-57.213 15.395-91.040 44.597-88.762 28.166 0.828 51.915 48.445 66.602 87.261l-0.19 14.359 0.949 281.457c2.347 16.102 16.896 17.052 16.896 17.052l33.758-5.212c47.375-7.111 40.8-25.112 40.8-25.112v-159.195c35.173 108.023 52.070 149.254 68 176.73 13.6 23.42 58.162 8.060 58.162 8.060s48.307-12.806 49.257-57.334c-1.415-73.454 8.906-193.092 8.906-193.092 0.173-1.898 1.812-2.485 2.727-1.657 0.725 0.656 0.794 2.606 0.794 2.606 9.613 76.992 53.382 203.343 70.899 236.204 17.5 32.844 68.155 9.475 68.155 9.475 60.682-20.849 52.519-56.851 52.519-56.851-18.122-308.933 20.003-329.143 42.56-331.041 22.488-1.881 34.38 27.165 39.367 41.059 5.005 13.911 11.253 44.217 15.015 56.229 3.745 11.995 15.636 12.633 15.636 12.633s13.773-3.158 13.773-14.532zM1568.481 657.988c-21.315-0.811-71.296-14.722-80.305-153.776-9.009-139.037 27.856-175.039 58.991-179.112 31.169-4.090 86.052 45.77 89.332 193.834 3.296 148.063-68.017 139.054-68.017 139.054zM2004.421 657.367c-21.625-0.828-76.042-19.779-88.313-154.38-9.147-140.866 28.287-177.317 59.923-181.476 31.584-4.142 87.347 46.392 90.661 196.388s-62.27 139.468-62.27 139.468zM2077.443 225.465c-123.211-106.452-133.842-182.495-133.842-182.495s-12.15-62.339 47.134-65.376c71.279-7.249 83.239 79.339 85.172 155.105 0.915 35.778 1.536 92.766 1.536 92.766zM2752.815 653.052c-21.297-0.811-71.313-14.722-80.323-153.776-8.992-139.037 27.873-175.022 59.025-179.112 31.135-4.090 86.035 45.788 89.314 193.834s-68.017 139.054-68.017 139.054z" />
<glyph unicode="&#xe90e;" glyph-name="calendar" d="M938.687 864.087h-138.749v63.875c0 17.679-14.359 32.037-32.037 32.037s-32.037-14.359-32.037-32.037v-63.875h-191.865v63.875c0.040 17.679-14.359 32.037-31.998 32.037s-32.037-14.359-32.037-32.037v-63.875h-192.025v63.875c0 17.679-14.359 32.037-32.037 32.037-17.639 0-31.838-14.359-31.838-32.037v-63.875h-138.749c-47.036 0-85.313-38.277-85.313-85.313v-757.301c0-47.196 38.277-85.473 85.313-85.473h853.373c47.036 0 85.313 38.277 85.313 85.473v757.301c0 47.036-38.277 85.313-85.313 85.313zM959.925 21.473c0-11.879-9.519-21.398-21.238-21.398h-853.373c-11.719 0-21.238 9.519-21.238 21.398v757.301c0 11.719 9.519 21.238 21.238 21.238h138.749v-64.075c0-17.639 14.199-31.838 31.838-31.838 17.679 0 32.037 14.199 32.037 31.838v64.075h192.025v-64.075c0-17.639 14.359-31.838 32.037-31.838s32.037 14.199 32.037 31.838v64.075h191.865v-64.075c0-17.639 14.359-31.838 32.037-31.838s31.998 14.199 31.998 31.838v64.075h138.749c11.719 0 21.238-9.519 21.238-21.238v-757.301zM224.062 575.95h127.95v-95.913h-127.95v95.913zM224.062 415.963h127.95v-95.913h-127.95v95.913zM224.062 255.975h127.95v-95.913h-127.95v95.913zM447.925 255.975h127.95v-95.913h-127.95v95.913zM447.925 415.963h127.95v-95.913h-127.95v95.913zM447.925 575.95h127.95v-95.913h-127.95v95.913zM671.988 255.975h127.95v-95.913h-127.95v95.913zM671.988 415.963h127.95v-95.913h-127.95v95.913zM671.988 575.95h127.95v-95.913h-127.95v95.913z" />
<glyph unicode="&#xe90f;" glyph-name="close" d="M808.077-64c-28.901 0-53.84 10.286-74.124 30.566l-221.953 221.956-221.953-221.956c-20.284-20.28-45.223-30.566-74.124-30.566s-53.84 10.286-74.124 30.566l-111.233 111.233c-20.284 20.28-30.566 45.22-30.566 74.124s10.286 53.843 30.566 74.124l221.956 221.953-221.953 221.953c-20.284 20.284-30.566 45.22-30.566 74.124s10.286 53.84 30.566 74.124l111.233 111.233c20.284 20.284 45.22 30.566 74.124 30.566s53.84-10.286 74.124-30.566l221.95-221.956 221.953 221.953c20.28 20.284 45.22 30.566 74.124 30.566s53.843-10.286 74.124-30.566l111.233-111.233c20.28-20.28 30.566-45.22 30.566-74.124s-10.286-53.843-30.57-74.124l-221.953-221.95 221.956-221.953c20.28-20.277 30.566-45.216 30.566-74.124s-10.286-53.847-30.57-74.124l-111.23-111.233c-20.284-20.28-45.223-30.566-74.124-30.566zM512 262.545l258.967-258.964c10.394-10.397 22.184-15.236 37.109-15.236s26.716 4.839 37.109 15.236l111.233 111.233c10.397 10.394 15.236 22.181 15.236 37.109s-4.839 26.716-15.232 37.109l-258.967 258.967 258.964 258.967c10.397 10.394 15.236 22.184 15.236 37.109s-4.839 26.719-15.232 37.109l-111.236 111.233c-10.394 10.394-22.184 15.236-37.109 15.236s-26.716-4.839-37.109-15.236l-258.967-258.967-258.967 258.967c-10.394 10.397-22.184 15.236-37.109 15.236s-26.716-4.839-37.109-15.236l-111.233-111.233c-10.394-10.394-15.236-22.188-15.236-37.109s4.839-26.716 15.236-37.109l258.967-258.967-258.967-258.967c-10.394-10.394-15.236-22.184-15.236-37.109s4.839-26.716 15.236-37.109l111.233-111.233c10.394-10.397 22.188-15.236 37.109-15.236s26.716 4.839 37.109 15.236l258.967 258.964z" />
<glyph unicode="&#xe912;" glyph-name="arrow-right-circle" d="M742.233 448l-286.839-291.268-84.825 83.539 204.538 207.729-204.538 207.729 84.825 83.516zM1024 448c0-282.314-229.686-512-512-512s-512 229.686-512 512c0 282.314 229.686 512 512 512s512-229.686 512-512zM119.070 448c0-216.659 176.271-392.93 392.93-392.93s392.93 176.271 392.93 392.93c0 216.659-176.271 392.93-392.93 392.93s-392.93-176.271-392.93-392.93z" />
<glyph unicode="&#xe91a;" glyph-name="hexagon" d="M508.522-64.276l-443.506 256.081v512.13l443.506 256.065 443.522-256.065v-512.13l-443.522-256.081zM113.778 219.957l394.744-227.913 394.76 227.913v455.81l-394.76 227.929-394.744-227.929v-455.81z" />
<glyph unicode="&#xe91b;" glyph-name="menu" d="M917.324 661.944h-808.726c-59.877 0-108.598 48.721-108.598 108.598 0 59.895 48.721 108.616 108.598 108.616h808.726c59.895 0 108.616-48.721 108.616-108.616-0.018-59.877-48.721-108.598-108.616-108.598zM108.598 825.263c-30.163 0-54.703-24.558-54.703-54.721s24.54-54.703 54.703-54.703h808.726c30.181 0 54.721 24.54 54.721 54.703 0 30.181-24.54 54.721-54.721 54.721h-808.726zM917.324 340.803h-808.726c-59.877 0-108.598 48.721-108.598 108.598s48.721 108.616 108.598 108.616h808.726c59.895 0 108.616-48.721 108.616-108.616-0.018-59.877-48.721-108.598-108.616-108.598zM108.598 504.122c-30.163 0-54.703-24.558-54.703-54.721s24.54-54.703 54.703-54.703h808.726c30.181 0 54.721 24.54 54.721 54.703 0 30.181-24.54 54.721-54.721 54.721h-808.726zM917.324 19.663h-808.726c-59.877 0-108.598 48.721-108.598 108.598 0 59.895 48.721 108.616 108.598 108.616h808.726c59.895 0 108.616-48.721 108.616-108.616-0.018-59.877-48.721-108.598-108.616-108.598zM108.598 182.982c-30.163 0-54.703-24.558-54.703-54.721s24.54-54.703 54.703-54.703h808.726c30.181 0 54.721 24.54 54.721 54.703 0 30.181-24.54 54.721-54.721 54.721h-808.726z" />
<glyph unicode="&#xe91c;" glyph-name="pin" horiz-adv-x="753" d="M376.652-64l-26.625 31.462c-14.241 16.95-350.028 416.589-350.028 615.886 0 207.695 168.957 376.652 376.652 376.652s376.652-168.957 376.652-376.652c0-199.297-335.787-598.936-350.066-615.886l-26.586-31.462zM376.652 890.343c-169.267 0-306.995-137.689-306.995-306.995 0-132.194 201.658-408.54 307.034-538.683 105.337 130.182 306.995 406.605 306.995 538.683-0.039 169.306-137.767 306.995-307.034 306.995zM376.652 406.612c-108.085 0-196.046 87.962-196.046 196.085s87.962 196.085 196.046 196.085c108.124 0 196.085-87.962 196.085-196.085s-87.962-196.085-196.085-196.085zM376.652 729.125c-69.696 0-126.428-56.732-126.428-126.428s56.732-126.428 126.428-126.428c69.735 0 126.428 56.732 126.428 126.428s-56.693 126.428-126.428 126.428z" />
<glyph unicode="&#xe91d;" glyph-name="play" d="M749.157 482.806l-301.257 197.248c-7.403 4.837-15.544 7.403-23.55 7.403-21.307 0-37.377-17.352-37.377-40.357v-398.181c0-23.005 16.070-40.353 37.377-40.353 8.006 0 16.147 2.561 23.55 7.422l301.257 197.263c12.549 8.213 19.745 20.892 19.745 34.777s-7.196 26.545-19.745 34.777zM444.847 283.151v329.722l251.79-164.844-251.79-164.878zM511.99 960c-282.304 0-511.99-229.687-511.99-511.99 0-282.323 229.687-512.010 511.99-512.010 282.323 0 512.010 229.687 512.010 512.010 0 282.304-229.687 511.99-512.010 511.99zM511.99-6.126c-250.391 0-454.117 203.725-454.117 454.136s203.725 454.117 454.117 454.117c250.41 0 454.136-203.706 454.136-454.117s-203.725-454.136-454.136-454.136z" />
<glyph unicode="&#xe91e;" glyph-name="pin-filled" horiz-adv-x="689" d="M344.625 960c-190.318 0-344.625-154.307-344.625-344.625s344.625-679.375 344.625-679.375 344.625 489.057 344.625 679.375c0 190.318-154.307 344.625-344.625 344.625zM344.673 418.475c-108.808 0-196.998 88.189-196.998 196.901 0 108.76 88.189 196.949 196.998 196.949 108.76 0 196.949-88.189 196.949-196.949-0.048-108.76-88.189-196.901-196.949-196.901z" />
<glyph unicode="&#xe91f;" glyph-name="heart-filled" horiz-adv-x="1170" d="M1075.238 864.803c-61.397 61.397-143.049 95.197-229.89 95.197s-168.494-33.8-229.954-95.197l-30.255-30.255-30.255 30.255c-61.365 61.397-143.049 95.197-229.89 95.197s-168.494-33.8-229.89-95.197c-126.782-126.782-126.782-333.063 0-459.813l454.274-454.274c7.437-7.437 16.678-12.026 26.331-13.767 3.26-0.665 6.488-0.949 9.779-0.949 12.817 0 25.698 4.905 35.541 14.716l454.243 454.274c126.718 126.75 126.718 333.031-0.032 459.813z" />
<glyph unicode="&#xe921;" glyph-name="book" horiz-adv-x="1506" d="M0 809.762v-873.762h1445.297v78.624h-1384.714v795.139zM793.489 110.807v763.352c-208.278 114.465-460.644 114.465-668.956 0v-763.352c208.312 114.465 460.678 114.465 668.956 0zM145.427 53.901c204.017 42.92 423.119 42.92 627.066 0-197.041 99.826-429.888 99.826-627.066 0zM878.78 53.901c203.982 42.92 423.050 42.92 626.998 0-197.109 99.826-429.854 99.826-626.998 0zM1505.365 110.807v763.352c-208.312 114.465-460.644 114.465-668.956 0v-763.352c208.278 114.465 460.609 114.465 668.956 0z" />
<glyph unicode="&#xe922;" glyph-name="globe" d="M512.026 960c-282.314 0-512.026-229.712-512.026-512 0-282.314 229.712-512 512.026-512 282.288 0 512 229.712 512 512s-229.712 512-512 512zM954.502 295.513c-1.546-0.236-2.96-0.681-2.672-3.196-0.288-1.65-0.052-2.751 0.472-3.536-12.155-33.426-28.056-64.992-47.1-94.41-3.196-1.441-6.104-3.327-8.068-6.235-11.5 2.515-15.377-3.982-21.9-7.282-4.61-0.55-4.82 4.087-9.378 3.667-1.205 8.671 2.462 11.736 1.624 20.092-0.524 4.244-1.65 7.911-4.663 9.142 3.825 9.116 0 19.202-1.624 27.427 2.096 4.218 9.064 2.829 12.522 5.475 5.737 2.384 3.929 13.674 7.806 18.259 3.222 3.72 3.039-0.786 6.235-1.781 3.536 0.733 0.105 9.693 3.117 10.924 4.82-0.262 8.854 4.322 12.548 0 5.658 1.205 4.218 10.871 6.261 16.503 4.558 2.489 9.771 4.296 15.587 5.475 3.196 0.445 0.419 8.016 3.144 9.142 7.571-3.432 21.454 0.55 27.977-4.087-0.603-1.912-1.231-3.746-1.886-5.58zM151.622 746.398c1.755-0.864 3.563-1.729 5.344-2.593 6.235 0.524 6.182 8.618 14.041 7.309-0.21-4.532 0.838-7.623 3.144-9.116 3.379 3.144 5.37 17.63 0 20.145-1.284 5.134 2.2 4.689 1.546 9.064 7.571 2.698 6.523-4.558 12.522-3.641 2.069-7.885 7.151-12.338 12.495-16.451 1.729-7.073-5.527-6.523-1.598-10.976 2.882 4.008 6.104 7.492 7.833 12.784 0.288 4.008-5.527 0.812-7.833 1.86-9.614 10.269-0.314 28.947 7.833 34.71 5.030-0.236 6.916-4.113 6.208-10.924 1.729 5.842 15.036 9.404 14.12-1.86 5.292 0.524 8.959 2.908 15.639 1.86 0.472-4.296 5.423-3.432 4.689-9.142h14.041c-0.603-7.44 4.27-8.461 6.287-12.836-0.445-3.72-4.296-3.563-4.715-7.309 4.663-1.834 8.697-4.453 14.067-5.475 1.65-1.677 0.445-6.759 4.741-5.501 0.026-4.27-2.724-5.344-1.65-10.976-5.161 1.86-5.082-2.489-4.663-7.309-4.899 1.546-6.601 6.916-12.495 7.309 0-5.396 4.087-6.182 4.715-10.924 1.048-10.924-5.003-10.688-1.572-20.171-13.072 1.31-16.896 13.203-26.563 18.337-6.523-0.288-13.098-0.629-15.639 3.667 1.729 13.124 18.756 8.54 20.302 21.9 0.891 7.833-8.435 3.536-6.261 12.784-5.030-2.096-9.614 5.606-12.469 0-2.541 3.772-7.885 4.296-14.067 3.667 1.912-2.672 5.973-2.751 7.78-5.475-1.598-4.794-1.808-11.238-1.546-18.259-6.968-3.353-12.888-4.899-23.445-7.335-0.367-3.405 1.808-4.060 1.546-7.282-8.252-0.733-10.688-8.226-14.041-14.644-5.134-3.144-7.413-9.693-12.522-12.784-0.131-2.908 0.262-6.366-3.117-5.501-0.76-6.994 7.23-3.72 4.689-12.757 7.204-2.593 12.522-7.309 17.211-12.836 3.903 0.236 4.872 3.484 6.235-1.886 3.17 1.074 3.065 5.554 6.261 1.886 1.965-7.413 2.751-16.346 6.235-21.926 2.253 7.754 2.331 17.97 7.833 21.926-1.074 2.462-4.768-1.624-6.313 3.667 1.65 5.134 6.732-0.472 9.431 0-2.698 13.596 3.877 23.786 1.546 42.018 4.453-1.493 4.087 2.62 7.833 1.86 4.427 0.314 3.667-6.89 7.78-1.86 7.23-1.205 5.711-9.823 14.067-5.449v-18.285c0.681-4.087 7.754-0.76 10.95-1.834 3.405-0.288 0.681 6.47 1.572 9.116 8.723-0.733 6.497-14.329 12.548-18.285 0.079-3.196-0.341-5.685-1.598-7.282 0.629-7.806 7.964-7.754 7.78-16.477 3.929 0.236 4.872 3.432 7.833 0 0.498-11.369 0.498-12.364 0-23.734 2.279-4.741 3.667-10.321 9.404-10.976-3.144-3.484-0.733-8.618 0-12.81-4.951-2.515-9.431 4.532-10.976 0-2.279 0.341-1.388 4.48-1.519 7.335-5.816 1.284-6.732-3.144-12.522-1.86 2.986 10.531 10.478 15.796 14.041 25.646-5.344 3.379-14.224-11.5-21.874-5.527-1.284-5.161 2.227-4.715 1.598-9.169-3.353-2.174-8.487-2.227-9.352-7.256-0.681-8.042 7.099-6.339 10.924-9.169-4.296-5.318-10.924-7.885-17.185-10.95 0 3.615 4.27 2.305 3.065 7.256-7.44-3.327-16.137-5.396-21.847-10.898-1.65-6.837 3.851-5.213 3.091-11.002-5.344-2.148-10.426-4.846-15.613-7.309 2.017-12.234-6.968-10.059-3.091-20.092-1.834-1.519-4.191-2.384-7.885-1.834 1.441-5.344 1.441-5.606 0-10.924-10.74-2.62-17.656-9.797-20.249-21.978 0.157-4.689 2.829-6.392 4.689-9.116-1.126-5.999-1.86-8.933 0-18.311-7.571 0.917-11.657 5.894-10.95 16.451-1.126 7.833-11.317 5.056-18.756 5.527-1.834-0.341-1.703-2.934-1.572-5.527-8.199-0.419-10.216 6.392-18.756 5.527-5.213-1.834-8.514-5.842-14.041-7.335 4.689-14.277-8.461-46.943 12.469-45.712 4.768 1.729 3.432 10.636 6.261 14.617 7.597-1.153 8.016-1.153 15.639 0 1.362-11.395-3.144-15.77-4.689-23.734 5.449-3.405 15.822-0.917 18.783-7.309 1.519-11.893-3.72-20.38 0-29.235 5.082 0.681 6.89 5.344 10.924 7.282 4.375-0.367 6.654-3.17 6.235-9.142 3.825 5.894 10.164 8.88 12.495 16.451 4.925-0.891 6.392 2.279 7.833 5.501 3.667-1.31 4.139-6.077 7.78-7.335 3.013 0.707 1.231 7.099 6.287 5.501 1.179-7.728 8.828-7.99 10.95-14.617 2.2 0.472 2.672 2.986 4.663 3.641 7.911-2.934 13.831-8.304 21.9-10.95 0.812-8.173 4.427-13.098 9.352-16.477 14.224 8.095 23.262-15.246 18.756-23.76 0.21-4.663 5.265-3.641 9.431-3.667 0.891-7.518 11.29-3.825 14.067-9.142h10.898c5.606-2.62 11.631-4.768 14.067-11.002 3.274 1.074 5.003 5.292 7.806 1.834 1.546-4.872 3.222-9.64 3.17-16.451 0.026-4.296-2.698-5.37-1.598-10.924-4.899-2.2-0.498-6.261-4.689-11.002-1.677-4.715-5.632-6.732-6.235-12.757-1.991-0.105-2.2-2.358-4.715-1.912 0.262-4.48-0.812-7.518-3.117-9.064 5.161-12.941-2.436-23-3.117-34.762-6.68-2.855-6.601-2.855-14.067-5.501-2.934-3.196-4.846-7.649-7.833-10.95v-12.731c-3.405-5.789-9.85-7.99-9.404-18.311-4.872 0.236-5.318-4.715-6.156-9.142-1.205-0.393-3.144-0.052-3.196-1.834h-12.495c0.655-6.497 4.165-9.771 3.091-18.232-5.842-2.253-8.828-7.99-17.158-7.335-2.358-6.339-2.043-15.849-12.469-12.784 10.557-1.912 4.191-19.961 0-25.62-0.864-6.497 5.527-4.506 4.689-11.028-0.236-4.61-2.305-7.073-6.313-7.282-0.183-7.099-5.213-8.409-4.663-16.425-1.677-6.811 5.868-2.908 4.663-9.142 2.122-3.72 5.108-6.182 9.378-7.282-1.048-6.654-11.369-2.541-17.185-3.694-2.803 1.912-5.265 4.191-8.854 5.213-0.183 0.131-0.341 0.236-0.498 0.367 0.262 3.379-1.755 3.982-1.572 7.23-5.161 3.72-4.715 13.91-9.326 18.232 3.641 10.426-1.703 16.844-3.17 29.261 3.222 5.737-1.415 10.19 1.546 14.617 1.965 5.946-5.056 1.415-3.091 7.309 2.515 4.349 9.116 3.903 7.806 12.784-1.467 4.951-5.475-3.248-7.806 1.834 3.274 12.024-0.655 32.457 7.806 38.429 1.965 11.369-4.218 20.957 0 29.182-0.236 3.432-1.022 6.13-3.091 7.282 1.572 2.41 1.493 6.759 3.091 9.195 0.026 11.552-4.925 17.394-7.806 25.567-9.221 1.415-11.369 11.133-17.237 16.503-1.31 5.161 2.2 4.768 1.598 9.142-8.278 3.72-15.194 9.064-14.093 23.707 2.777 1.074 6.497 0.917 7.833 3.667-3.17 3.013-8.199 3.851-10.924 7.335 6.313 5.894-3.039 12.757 0 25.593 1.231 7.099 6.916 8.854 6.261 18.259-1.153 5.003 3.117 3.72 3.117 7.335-1.519 5.501-4.139 9.797-4.689 16.451-3.222-0.524-3.117-4.899-4.689-7.282-7.911 2.331-9.771 11.683-18.756 12.784v5.449c-3.248 2.358-6.392 4.794-7.806 9.169-5.030-0.393-6.628 3.274-12.522 1.86-2.436 3.851-4.48 8.147-6.287 12.81-15.508-4.008-23.079 5.318-35.941 9.116-3.274 7.806-7.361 14.513-6.182 27.401-3.563 5.658-7.754 10.557-12.548 14.644-0.105 2.908 0.183 6.339-3.091 5.449 0.026-10.321 3.196-8.54 3.091-16.399-4.768-1.362-4.584 3.17-9.378 1.808-2.934 6.942-4.506 15.508-10.976 18.285 0.288 2.148-0.236 5.187 1.572 5.501-5.292 5.92-5.003 18.521-9.352 25.567-1.415 1.126-2.567 2.541-3.746 3.877 14.617 80.474 49.772 153.875 100.016 214.414zM209.699 805.025c26.039 22.083 54.514 41.363 84.927 57.395 0.681-2.174 4.506-0.576 4.506-3.484-2.541-10.924-12.181-5.554-18.756-9.116-3.405-0.288 2.017-4.584 0-9.169-5.789 0.183-8.933-2.908-10.898-7.309-9.902 1.86-10.636-7.021-18.73-7.282 1.624-11.736-7.833-10.347-7.833-20.118h-10.95c-1.074-4.925 7.361 1.284 6.235-3.641 0.498-4.82-2.122-5.999-6.235-5.449-3.72-13.648-19.411-3.589-31.252-5.501 0.026 2.2-0.969 3.222-2.279 3.877 1.912 1.781 3.956 3.432 5.92 5.161 4.349-1.677 9.221-3.222 15.089-1.729-2.384 4.584-5.658 6.104-9.745 6.366zM926.603 665.007c-2.227-2.751-4.977-4.794-6.025-8.959 2.489-8.514 7.413-3.589 11.474-1.598 2.724-5.475 5.239-11.002 7.754-16.582 0.367-8.88 2.567-19.202 1.126-29.313-5.685-6.182-8.828-15.272-12.495-23.76-4.532-2.096-9.221-3.851-12.548-7.361-5.003-13.962 4.768-34.133-4.663-42.045-4.925 2.279-9.3 4.977-7.806 14.67-2.174 5.37-7.623 6.968-9.352 12.757-10.295 0 1.284-8.54-3.196-10.924 0.21-3.274-1.546-4.27-4.689-3.694 1.31-5.134-2.174-4.689-1.519-9.090 0.079-5.396 3.51-6.811 6.182-9.142-0.026-5.658 1.493-9.352 4.689-11.002-4.977-4.453-2.069-18.128-4.689-25.62-1.965-0.079-2.148-2.279-4.689-1.781-2.436-11.788-9.090-18.599-14.067-27.427-8.173 0.419-16.058 0.498-17.211-7.335 2.751 0.131 4.899-0.419 6.287-1.781-1.86-3.956-1.912-10.007-6.287-10.976 1.65-22.083-1.965-37.879-17.132-40.211 0.105 3.144-0.393 5.632-1.572 7.309-6.706 1.257-9.142 7.571-12.548 12.757-5.187-0.603-2.436-10.505-3.091-16.425 2.41-5.711 6.601-9.352 10.95-12.784 0.419-11.159 8.173-13.596 7.806-25.646-8.907 6.13-15.927 14.224-23.498 21.926 1.729 8.121-2.62 9.142-3.039 14.67-1.441 5.816 2.489 5.685 3.039 9.142-0.786 5.737-3.667 9.038-7.754 10.976 2.305 5.58-0.55 7.099 1.598 10.976-3.248 4.113-13.936-0.419-15.691 5.475-1.31 5.161 2.227 4.689 1.624 9.116-5.868 2.331-5.868 11.421-9.431 16.451-5.816-1.1-10.19-3.851-14.041-7.309-2.148-5.344-8.199-6.235-7.78-14.617-4.872 1.362-1.965-6.313-7.859-3.641v-7.335h-6.261c1.467-15.691-4.191-23.105-6.235-34.736-4.139 0.052-8.907-0.655-10.924 1.834v10.95c-1.284 5.789-4.61 9.326-7.859 12.81-2.541 8.514-4.663 17.682-9.3 23.76 1.231 6.366-2.331 7.021-1.624 12.784-2.174 2.908-7.702 1.939-9.326 5.475 0.079 2.2 0.445 4.322 3.065 3.641-6.759 3.065-9.352 11.028-20.223 9.169-3.17-0.576-3.17 2.436-4.741 3.641-6.968 0.21-8.068-6.392-15.639-5.475 1.362 5.842-2.489 5.632-3.117 9.142-15.822-2.017-13.15 17.499-21.9 23.76-2.331-0.943-3.903-2.698-6.208-3.667 3.274-1.624 2.724-7.78 7.754-7.309-0.76-9.457 5.003-11.317 6.261-18.232 2.541 3.091 6.575 4.532 12.522 3.641-1.336-11.29 6.706-11.71 9.404-18.311-0.183-6.497-5.789-6.654-4.715-14.617-6.025-2.122-8.88-7.885-15.639-9.116-2.829-0.288-0.943-6.208-3.117-7.309-12.653-2.279-20.302-10.426-31.278-14.644-7.728 6.549-7.256 17.997-10.95 25.541-6.261 7.885-10.662 17.997-17.158 25.62 1.624 3.694-2.489 13.308-6.208 16.451-2.253-0.367 1.415-9.064 0-14.591 1.808-5.134 6.654-6.837 9.3-10.976-3.065-13.989 7.702-11.762 6.313-23.786 5.554-6.863 13.308-11.264 14.041-23.786h14.041c6.13-0.472 5.868 6.601 12.495 5.527 4.872-3.929 2.751-13.308 1.598-20.118-7.675-12.391-14.434-25.777-21.874-38.403-4.060-2.62-7.178-6.13-10.95-9.142-1.755-8.907-4.48-16.661-7.859-23.76 2.358-14.853 2.358-36.308 0-51.161-12.103-7.099-18.521-20.904-18.73-42.018-5.396 1.441-6.549-2.043-9.352-3.667 1.284-7.571-2.436-9.404-1.624-16.503-6.863-4.689-11.605-11.945-13.989-21.9-13.386-3.379-20.931-13.386-35.993-14.617-7.178 9.221-7.073 27.060-14.041 36.517v16.503c-2.541 12.234-7.387 21.821-14.093 29.235 3.274 9.011 2.436 22.764 6.261 31.095-1.86 8.776-2.069 19.411-6.261 25.567 2.698 12.757-4.872 19.883-9.326 29.235-0.21 12.417 4.689 18.861 3.091 32.955-5.396 1.388-6.575-2.043-9.378-3.72-5.58 0.786-8.304 4.925-15.613 3.72-2.174 1.1-0.262 7.021-3.17 7.282-6.339 0.707-6.156-6.182-9.326-9.169-8.173 0.419-15.639-0.026-21.926-1.834-9.85 1.912-14.617 9.693-21.847 14.644-2.489 10.531-7.125 18.494-12.495 25.62v47.519c3.982 6.366 7.597 13.098 7.806 23.76 3.432 4.872 11.814 9.823 14.093 14.644 3.589 7.597 1.965 18.809 6.235 27.401 3.956 3.248 9.614 4.61 10.924 10.976 4.768 0.079 7.964-1.598 9.404-5.449 5.946 7.021 16.949 8.121 29.654 7.282 6.444 3.458 13.962 5.632 23.472 5.501 2.043-2.436 2.043-6.837-1.598-7.335 1.415-3.248 4.375-4.637 3.17-10.976 6.68-9.221 20.983-9.588 28.108-18.259 4.087 1.912 3.248 9.588 7.806 10.95 15.089-0.681 29.235-2.384 40.656-7.335 6.392 1.048 3.274 13.281 7.833 16.53v10.924c-7.544 2.698-1.441-10.505-7.833-9.169-7.204-0.341 1.572 6.549-3.117 9.169-4.244-3.222-14.67-4.663-20.302 0-2.567 2.122-1.205 7.99-4.689 7.335 1.257 7.833-0.236 7.44 1.493 14.591h-4.663c-4.349-6.654 1.1-15.639-1.519-21.926 5.318 0.76 8.907-0.55 7.806-7.282-4.139 3.956-8.88 0.341-9.352 5.449 0.943 0.105 1.808 0.288 1.572 1.834-4.165 0-8.959-0.681-10.95 1.834v10.976c0.629 2.829-1.886 5.003-3.117 7.309-0.891 1.598-2.148 5.868-3.17 7.309-5.134 7.806-14.015 11.71-18.704 20.118-4.951-14.329 14.513-15.901 18.704-25.62-2.541-6.13-4.925 5.763-7.78 0 0.157-2.882 3.929-1.467 3.117-5.501-3.589-3.091-8.618-4.584-7.806-12.784-2.331 3.432-8.068 2.724-7.833 9.169 3.851-0.262 7.571-0.341 7.833 3.615-1.677 7.204-6.497 10.793-14.067 11.002-1.572 2.384-1.493 6.785-4.689 7.282-0.969-9.745 5.187-19.071-4.715-20.066-2.174 8.88-4.401 20.328 0 27.427-6.366-0.55-9.090-6.47-15.639-1.834-8.357-0.576-7.178-12.338-14.041-14.644 1.1-12.862-4.27-18.128-7.806-25.593-5.92 3.484-6.628 3.484-12.469 0-4.637 1.257-6.863 5.475-14.12 3.641 1.572 8.487-2.043 11.055-3.117 16.477 6.601 0.236 1.493 14.041 3.117 20.118 9.588-1.65 16.137 4.322 23.445 0 3.222 0.524 3.144 4.899 4.715 7.309 0.917 8.409-7.047 6.339-6.261 14.617-4.191 0-8.933-0.681-10.976 1.834-0.157 5.711 4.060 6.261 7.859 7.256 4.191 2.41 5.527 8.173 12.469 7.361 1.231 0.367 1.808 1.519 1.572 3.667-9.404 0.655-17.289-0.524-25.017-1.86-0.55 5.527 5.108 3.798 7.833 5.527-2.043 4.296-4.401 8.33-3.17 16.399 2.593-2.724 8.487 0.891 7.859 7.335-2.096 0.786-4.008 1.048-7.859 3.589-0.891 9.64 2.777 13.91 1.65 23.838 3.746 1.624 6.706 4.27 12.469 3.641 0.288-4.558-2.436-5.711-4.689-7.335 1.546-2.462 4.139-3.615 6.261-5.423-5.711-9.457 6.575-11.107 4.663-21.926 1.546-2.541 4.165-3.72 6.261-5.554-5.92-5.265-4.951-10.4-6.261-18.232 7.44-1.415 2.017 12.181 10.871 9.116-1.179 6.339 1.808 7.728 3.196 10.95 5.082 0.864 8.487 3.51 14.093 3.72-0.157 2.803 0.183 6.313-3.17 5.423 0.026 5.396 2.908 7.413 6.261 12.836-2.646 3.563-10.924 0.55-12.495 5.475 0.445 8.461 0 15.77-3.144 20.092 3.17 8.487 4.191 19.437 14.067 20.118v7.309c1.86-0.314 4.48 0.262 4.715-1.86 4.506 5.082 7.623 11.788 9.352 20.118 6.182 6.235 13.203 11.395 18.783 18.285 2.698-0.733 4.008 2.698 4.663 0 4.296 3.51 8.199 7.492 12.548 11.002h14.067c3.379-2.777 5.737-6.759 7.833-11.002 5.816-0.472 10.059-2.882 12.495-7.309 9.954-0.891 22.921-6.785 18.783-18.259 9.352-1.284 9.719 8.068 9.352 18.259 1.86-2.069 5.475-2.069 9.326-1.834v-10.976c7.885 2.384 11.683 9.457 18.809 12.81 9.902-0.891 16.844 1.755 23.445 0 1.781 8.226-8.697 1.965-6.261 11.028 10.95-0.288 10.216-4.61 20.302-3.72 5.265 6.628 11.369 12.443 15.665 20.145 7.256 2.384 6.994-4.060 9.404-7.361 6.785-2.462 3.301 7.099 9.326 5.501-0.236-4.506-0.288-8.828 1.572-10.976 3.956 0.236 3.091 6.13 3.17 10.976 8.33 1.284 9.902-5.396 15.56-7.282 1.441 8.278-7.78 4.244-7.78 10.898-1.467 6.654 6.104 2.62 9.404 3.694 3.929 0.183 2.462 6.811 4.663 9.142 5.292-0.707 6.601 3.144 9.352 5.501 9.090-0.891 14.696 2.279 18.809 7.282 4.925 1.65 3.17-4.768 6.182-5.449 5.999-0.917 3.17 8.409 10.976 5.449-0.341 6.523 1.126 10.976 4.663 12.836 6.104 1.022 5.449-5.816 9.352-7.335 6.863-0.026 14.067-0.629 18.835 1.834 2.096-5.396 7.125-7.387 9.326-12.784 0-5.501-4.034-6.208-4.663-11.002 8.723 2.148 11.71-2.777 15.56-3.667 1.991-0.367 4.375 0.655 6.261 0 3.641-1.205 7.125-3.432 11.448-3.982 34.605-34.055 63.997-73.427 86.761-116.834zM960.711 581.364c-0.341-0.681-0.603-1.493-1.048-2.096-3.615-0.524-1.755 5.292-4.663 5.527-5.527 1.074-5.134-8.671-9.431-3.667-0.131 7.492 2.724 11.448 1.624 20.092 2.934-0.341 5.475-1.205 7.833-2.174 1.991-5.842 3.929-11.736 5.685-17.682zM904.966 416.565c2.593 4.401 4.113 8.645 9.352 5.527 0.052 4.846-0.603 10.4 1.572 12.784 4.427-0.341 6.654-3.196 6.287-9.116 2.777-3.458 9.247-2.593 7.78-10.976-7.44 0.838-11.814-1.965-14.067-7.282-4.899 1.284-2.017 4.82-1.572 9.090-4.925 0.943-6.104-3.956-9.352-0.026zM909.707 341.644c-5.816-3.772-5.999 2.043-9.431 5.475-2.724-1.677-3.458-5.685-3.117-10.976-11.998 6.837-6.444 27.244 1.572 34.736 2.672-5.344 12.181-2.803 12.548-10.95-2.148-2.331-5.789-2.331-7.806 0 0.21-8.252 5.344-10.662 6.235-18.285zM889.327 361.763c-5.187-2.462-2.724-13.831-7.833-16.451 0.026-1.703 1.939-1.441 3.17-1.808-0.157-3.458-5.239-1.284-4.741-5.449-10.138-2.751-8.645 8.173-18.756 5.449 0.55 9.771-6.287 10.95-7.833 18.259 2.751 17.551 23.576 13.858 25.017 32.955 7.151 0.472 10.216-3.903 14.041-7.335 0.76-5.763-1.912-7.492-4.689-9.169 2.986-4.322-1.912-10.531 1.624-16.451zM879.948 317.911c-17.054-2.305-24.153 7.125-39.111 7.282-1.257 6.339 1.755 7.754 3.196 10.95 9.457-3.51 18.416-7.623 31.199-7.256-0.864-6.523 5.554-4.558 4.715-10.976zM890.872 469.612c-0.655 4.663-2.2 8.435-4.689 10.976 1.677 4.218 7.047 9.509 10.95 5.501-0.341-7.597 0.21-16.084-6.261-16.477zM908.057 455.021c0.995-9.142-4.322-10.819-6.261-16.451-3.772 2.829-6.863 6.47-9.352 10.95-0.105 9.064 11.395 12.129 15.613 5.501zM945.569 367.29c-0.367-7.623-11.919-9.431-17.132-5.527-0.445 8.54 11.972 9.195 17.132 5.527zM939.361 528.107c-1.336 0.969-2.541 1.939-4.741 1.86-4.532-2.698-8.278-6.13-9.352-12.862-2.567 3.117-6.497 4.61-6.235 11.002h9.378c0.655 5.082-8.54-1.467-7.859 3.641 0.131 9.64 10.19 7.649 15.665 10.976 5.632 5.973 8.357 8.121 14.067 10.976-0.21 2.122 0.367 3.274 1.546 3.667-2.384 9.169 0.367 13.386-1.546 21.9h6.208c-0.288-13.727 2.803-23.472 3.144-36.543-5.003-6.89-15.325-7.623-20.276-14.617zM945.805 623.644c2.489-6.025 4.846-12.076 7.047-18.259-5.003 2.934-6.497 9.981-7.047 18.259zM803.378 389.19c3.956 1.965 7.964-6.208 7.806 1.781 3.117-0.052 2.017-4.951 6.235-3.641-1.048-5.606 3.877-8.514 6.235-12.784 2.174-3.851 7.754-9.090 12.548-12.81-0.157-8.749 6.785-16.792 3.117-23.707-7.256-3.929-9.509 8.095-17.237 9.090 3.17 25.070-18.704 20.747-18.704 42.071zM750.2 411.142c3.274-3.563 6.575-7.047 7.833-12.784-3.667-0.576-2.934-6.392-7.833-5.527-5.946 5.239 2.305 7.492 0 18.311zM634.597 263.083c-1.441-0.812-2.882-1.65-3.196-3.72v-9.116c-4.165-8.278-2.829-11.945-6.182-20.118-5.973 1.362-7.466-2.253-12.522-1.834-5.868 6.366-1.388 13.674-4.715 21.952 2.279 2.829 3.274 7.125 4.715 10.976 0.76 5.763-2.777 6.444-1.546 12.757 3.746 5.344 7.309 10.976 14.041 12.81 1.126 7.23 3.484 12.941 6.182 18.285 6.523 0.812 0.524-12.862 6.313-12.784-0.236-13.57-5.999-21.219-3.091-29.208zM282.026 96.686c-0.341 5.999 7.282 7.23 6.182 0h-6.182zM341.386 692.565c-3.589-1.31-4.689-5.423-6.261-9.090-5.161-0.472-3.327 7.099-7.806 7.335h-10.95c-8.383 12.312 0.236 33.216-10.924 42.045-1.808 5.292 7.466 6.759 3.091 9.142 3.065 3.72 7.361 5.973 10.95 9.116-2.2 7.178-12.757 4.584-14.041 12.757 4.768-0.026 10.321-0.995 9.352 5.554-3.772 6.575-4.584-5.37-10.898-1.86-0.917 5.92 1.022 8.514 1.546 12.757-2.043 4.322-4.375 8.33-3.144 16.53-9.142-1.65-14.067 1.808-18.809 5.449-4.768 1.336-2.934-5.030-7.78-3.641-5.161 2.515-11.028 4.087-12.495 10.976 4.244 3.563 13.648 1.074 20.276 1.808-0.262 10.007-7.073 2.96-10.898 1.834 0.026 4.899-7.885 4.899-7.833 0-2.882 0.707-2.829 5.187-7.754 3.641 2.043 7.44 7.099 7.806 10.924 5.501 4.244 4.82 12.626 4.741 17.185 9.116 0.681 5.789-7.728 0.681-6.261 7.309 16.137 1.912 23.524 13.962 39.111 16.477 10.452-3.065 16.818 0.262 28.108-1.86 2.698 0.995-1.703 8.802-1.598 12.81 2.934 5.161 11.657 3.484 18.783 3.615 6.523 4.584 21.847-1.126 28.134 3.746 2.751-1.048 6.497-0.969 7.833-3.746 2.777 4.846 8.985 2.148 14.041 0 8.618 0.969 15.534-0.079 18.756-5.423-1.886-8.173-14.617-3.589-15.639-12.81 3.144-2.934 10.478 4.768 17.185 3.667 4.925 0.864 4.139-4.951 7.833-5.501 1.074-3.641 9.352 1.153 7.806-5.449 0.969-7.23-8.592-2.174-12.443-3.72-5.554 0.995-3.903-6.444-9.404-5.449-1.179-5.632 2.672-5.396 1.519-11.002-5.868 1.965-4.48-4.506-9.352-3.615 4.113-3.694 12.103-2.934 12.495-10.95-5.658 0.524-10.216-0.314-14.093-1.86 2.41-9.981 6.68-28.396-6.182-29.208 1.362-3.274 4.349-4.663 3.091-11.002-2.331 0.969-3.956 2.751-6.208 3.641-4.427-2.882 8.409-6.497 3.117-10.924-8.199-0.419-11.448 4.899-17.237 7.282-4.244 1.31-3.117-3.641-6.261-3.694 4.322-0.498 10.898-7.806 14.067-3.589 4.375-6.47-8.723-8.042-9.352-14.644-7.937-1.703-11.238-8.828-18.809-10.95-2.829-2.148-5.265-4.82-7.78-7.361-6.575 4.401-6.575-3.615-12.469 0-4.060-0.105-2.279-7.099-6.287-7.309 1.519-13.36-8.173-13.596-6.235-27.453zM514.227 833.343c2.069 0.288 5.816-6.077 6.208-1.808 4.296-7.178 14.015-8.068 12.548-21.9-10.714-2.777-13.072 4.244-17.263 9.142-1.834-6.313-3.274-13.281-4.637-20.118-4.453-0.419-8.514-0.236-7.78 5.449-5.711-1.153-8.357 1.284-11.002 3.667 0.183 8.33 7.492 8.33 7.859 16.425-7.387 0.786-7.649-6.863-14.093-7.282-2.934 3.484-0.21 4.637 0 9.142-1.074 4.82-7.125 3.877-7.754 9.142 0.472 17.316 15.403 8.723 18.73 0 4.060 1.546-3.039 7.99 1.519 10.976 6.575 1.572 11.526-4.27 7.833-9.142 1.336-2.698 3.903-3.903 7.833-3.694zM512.629 849.82c12.653-0.367 26.353-0.943 40.709-3.641 1.86-8.383-5.527-5.763-6.287-10.976-14.879-2.2-22.974 3.589-32.824 7.335-1.231 1.598-1.65 4.087-1.598 7.282zM431.369 641.405c-3.065-2.489-8.959-1.703-12.495-3.615-2.41 2.646-1.388 9.352-1.546 14.644 2.646 3.117 6.104-2.698 6.235 5.396h7.806c-0.393-8.357-1.624-8.723 0-16.425zM419.528 710.903c-4.872 1.048-3.117 9.771-10.898 7.335-1.388 7.073 3.72 6.47 4.637 10.95-3.772 0.733-3.353-3.327-7.833-1.86 0.079 6.706 8.147 3.956 6.313 12.81 5.423 0.341 5.056-6.182 9.352-7.282 6.392 2.934 8.749-0.655 15.665 1.834-0.472-7.885 4.715-9.090 3.065-18.285-1.965-2.567-7.623-0.864-7.806-5.501-1.624 1.912-11.159 3.772-12.495 0zM629.908 796.852c9.273 4.375 17.944 9.404 29.654 10.924 1.519 0.026 1.257 2.227 1.598 3.667h7.833c-0.812-9.483-5.763-13.962-15.665-12.784-8.278-4.322-12.417-13.543-23.419-14.644-1.808-13.019 5.606-15.377 7.806-23.734-2.724 0.026-4.034-1.388-4.715-3.694-5.763 3.039-10.583 7.125-15.665 10.976 0.393 5.658 4.349 7.099 6.287 11.002-1.257 9.981 6.968 8.854 6.287 18.285zM629.908 837.036c-0.55 9.431 13.884 13.334 13.989 1.808-5.842 0.76-8.671-7.492-13.989-1.808zM733.015 838.844c8.618 4.584 22.921 1.598 26.563-5.501-2.908-11.867-15.822-2.96-28.082-5.475 0.891 3.196-1.886 10.767 1.519 10.976zM217.898 710.903c-1.86-11.448-13.124 8.854-12.522-5.501-5.737 0-10.74 0.864-10.924 7.309 6.968-2.017 5.632 5.632 7.859 9.169 4.715 1.336 4.584-3.17 9.352-1.86 4.034-4.48 0.026-7.099 6.235-9.116zM244.461 453.161c1.415-7.754-3.746-7.78-9.404-7.309v7.309h9.404zM200.713 458.636c-6.837 1.153-7.492 9.535-14.093 10.976-7.702 2.358-7.675-4.401-14.015-3.667-0.288 4.584 2.462 5.685 3.091 9.169h23.419c0.786-5.213 5.973-5.292 9.352-7.335 0.052-3.641 4.322-2.305 3.196-7.309 9.404-0.498 18.049 1.231 20.302-10.95-4.401-0.341-10.714 1.519-10.898-3.667-3.432 1.546-5.37 4.741-10.95 3.667-0.864 4.61-2.724 7.073 3.039 7.282-1.126 4.139-8.723 0.733-12.443 1.834zM203.831 447.633c-5.554-2.358-5.737 0.183-10.924-1.781v7.309c4.951-0.236 11.945 1.808 10.924-5.527zM194.453 478.754v7.335c3.982-0.236 6.104-2.698 6.261-7.335h-6.261zM205.376 486.089h4.741c1.31-2.122 2.043-4.872 1.546-9.142-5.789-1.257-6.89 2.855-6.287 9.142zM213.157 469.612v9.142c4.034-0.262 6.077-2.672 6.287-7.335 2.331-0.314 5.789 0.681 6.287-1.808 1.677-6.418-9.588-4.925-6.287 1.808-2.096-0.576-2.96-2.567-6.287-1.808zM962.78 321.945v10.583c-5.816 7.806-14.932 11.762-21.874 18.259-3.825 2.41-7.544-4.087-7.78 0-1.388 5.868 5.108 2.515 4.584 7.335 4.899 1.31 3.065-5.030 7.859-3.694 3.929-0.341 4.925 2.777 6.261 5.475h10.95c3.196-1.1 5.658-3.065 8.068-5.134-2.253-11.081-5.056-21.978-8.068-32.824zM227.276 798.659c-0.445 0.472-2.41-0.917-1.546-1.808 0.445-0.55 2.331 0.838 1.546 1.808zM884.664 557.368c-2.331 0.341-1.441 4.427-1.572 7.309-5.894 0.786-7.125-3.877-9.378-7.309 4.034 1.493 8.592-5.554 10.95 0zM793.973 782.156c0.472-0.524 2.41 0.917 1.624 1.834-0.445 0.524-2.462-0.838-1.624-1.834zM798.662 784.016c0.445-0.498 2.331 0.891 1.572 1.834-0.472 0.472-2.358-0.864-1.572-1.834zM690.84 754.781c-0.472-4.82 3.248-4.715 6.235-5.501 1.415 5.946-5.082 2.541-6.235 5.501zM80.395 493.345v1.86c-1.808-0.367-0.891-1.86 0-1.86zM490.781 579.268v3.667c-1.965-0.472-1.598-3.641 0-3.667zM531.385 727.327c-5.108-12.26-16.32-17.499-17.158-34.762 1.231-3.379 2.567-6.628 3.117-10.924-3.458-7.544-5.868-16.32-9.352-23.812-13.962-7.413-10.95 17.525-18.756 18.311 0.262-8.173 2.672-13.858 6.261-18.311-3.667-0.472-3.667-4.872 0-5.396 0.131 4.48 5.161 0.341 4.689-1.808 4.060 0.157 4.977 4.401 9.378 5.423 3.536 0.891 7.361-0.629 12.469 0 4.925 4.584 2.803 17.473 6.287 23.786 7.099 3.405 2.724-6.628 6.235-7.282v18.259c-5.37 1.022-9.562 3.405-12.548 7.282-1.388 15.665 11.317 14.905 12.548 27.427-0.367 1.388-1.31 2.122-3.17 1.808zM278.856 645.098c-0.393 0.55-2.384-0.891-1.572-1.781 0.419-0.55 2.41 0.838 1.572 1.781zM844.034 460.469c-4.453-5.292 5.056-4.715 3.091-12.836 2.043-1.808 5.763-1.755 7.78-3.589-2.096 11.264-2.882 5.711 0 12.757-6.811-2.358-6.366 8.776-10.871 3.667zM567.352 734.689c-0.393-3.248 0.183-18.599 9.378-16.451 4.375 1.755-2.331 4.872 1.519 7.282 3.772 1.808 9.954 0.603 9.431 7.335-5.108 2.62-13.124 1.703-20.328 1.834zM551.739 756.588c0.445-0.55 2.358 0.917 1.624 1.808-0.498 0.524-2.462-0.864-1.624-1.808zM579.874 493.345c0.419-0.472 2.384 0.917 1.546 1.86-0.393 0.498-2.384-0.891-1.546-1.86zM581.393 720.019c0.445-0.498 2.384 0.891 1.624 1.834-0.472 0.498-2.41-0.864-1.624-1.834zM690.84 754.781c1.493 7.597-4.663 0.393 0 0zM539.244 685.309c4.663 0.052 9.535-0.157 9.352 5.501-3.851-0.969-9.404 0.052-9.352-5.501zM803.378 787.683c0.393-0.498 2.384 0.864 1.546 1.808-0.419 0.472-2.384-0.838-1.546-1.808zM408.631 849.82c2.646 2.358 6.051 3.772 6.208 9.142-6.654-1.126-21.271 2.043-26.563-5.475 8.435 0.733 15.56-0.079 20.354-3.667zM403.863 771.206c0.55 4.872 3.903 6.392 4.768 10.95-4.768 1.126-8.907-7.649-4.768-10.95zM78.771 500.68c-2.724 1.65-2.62 6.732-6.208 7.309-1.31-5.423 4.218-11.841 6.208-7.309zM72.563 511.656c0 1.048-1.231 2.096-1.598 0-0.026-1.022 1.31-2.069 1.598 0z" />
<glyph unicode="&#xe923;" glyph-name="plus" d="M350.912 960v-350.912h-350.912v-322.238h350.912v-350.85h322.238v350.85h350.912v322.238h-350.912v350.912z" />
<glyph unicode="&#xe924;" glyph-name="check" d="M954.857 627.428q0-22.857-16-38.857l-491.429-491.429q-16-16-38.857-16t-38.857 16l-284.571 284.571q-16 16-16 38.857t16 38.857l77.714 77.714q16 16 38.857 16t38.857-16l168-168.571 374.857 375.429q16 16 38.857 16t38.857-16l77.714-77.714q16-16 16-38.857z" />
</font>
</defs>
</svg>
