<?xml version="1.0" encoding="utf-8"?>
<!-- Generator: Adobe Illustrator 20.1.0, SVG Export Plug-In . SVG Version: 6.00 Build 0)  -->
<svg version="1.1" id="Layer_1" xmlns="http://www.w3.org/2000/svg" xmlns:xlink="http://www.w3.org/1999/xlink" x="0px" y="0px"
	 viewBox="0 0 128.4 57" style="enable-background:new 0 0 128.4 57;" xml:space="preserve">
<style type="text/css">
	.st0{fill:#FFFFFF;}
</style>
<path class="st0" d="M48,13.1L26.7,0.8c-1.1-0.6-2.5-0.6-3.6,0L1.8,13.1C0.7,13.7,0,14.9,0,16.2v24.6c0,1.3,0.7,2.5,1.8,3.1
	l21.3,12.3c0.5,0.3,1.2,0.5,1.8,0.5s1.2-0.2,1.8-0.5L48,43.9c1.1-0.6,1.8-1.8,1.8-3.1V16.2C49.8,14.9,49.1,13.7,48,13.1 M35.7,42.1
	c-0.3,0.3-0.7,0.4-1.2,0.4h-0.1c-1.9,0-3.5-0.6-4.7-1.9c-1.3-1.3-1.9-2.8-1.9-4.7v-6.3c0-0.9-0.3-1.7-1-2.3c-1.3-1.3-3.4-1.2-4.7,0
	c-0.6,0.6-1,1.4-1,2.3v7.7c0,0.5-0.1,0.9-0.5,1.2c-0.3,0.3-0.7,0.4-1.2,0.4s-0.9-0.1-1.2-0.4c-0.3-0.3-0.4-0.7-0.4-1.2V14.1
	c0-0.5,0.1-0.9,0.4-1.2s0.7-0.4,1.2-0.4s0.9,0.1,1.2,0.5c0.3,0.3,0.5,0.7,0.5,1.2V24c0.3-0.2,0.6-0.3,0.9-0.4
	c0.9-0.3,1.6-0.5,2.5-0.5c1.9,0,3.4,0.6,4.7,1.9s1.9,2.8,1.9,4.7V36c0,0.9,0.3,1.7,1,2.4c0.6,0.6,1.4,1,2.4,1h0.1
	c0.5,0,0.9,0.1,1.2,0.5c0.3,0.3,0.4,0.7,0.4,1.2C36.1,41.4,36,41.8,35.7,42.1"/>
<g>
	<g>
		<path class="st0" d="M68,11.2v11.3c0,1.7-0.6,3.1-1.8,4.3c-1.2,1.2-2.7,1.8-4.4,1.8c-0.9,0-1.8-0.2-2.7-0.6
			c-0.4-0.2-0.4-0.5-0.3-0.8c0.2-0.4,0.4-0.5,0.8-0.3c0.7,0.3,1.4,0.4,2.1,0.4c1.3,0,2.5-0.4,3.4-1.4c1-1,1.4-2.1,1.4-3.4v-1.5
			c-0.5,0.8-1.3,1.4-2.1,1.8s-1.7,0.6-2.7,0.6c-1.7,0-3.1-0.7-4.3-1.9c-1.2-1.3-1.8-2.8-1.8-4.6s0.6-3.2,1.8-4.6
			c1.2-1.3,2.6-1.9,4.3-1.9c1,0,1.8,0.2,2.7,0.7c0.9,0.4,1.5,1.1,2.1,1.8V11c0-0.1,0.1-0.3,0.2-0.4c0.1-0.1,0.3-0.2,0.4-0.2
			c0.1,0,0.3,0.1,0.4,0.2C67.9,10.8,68,11,68,11.2z M57.1,16.9c0,1.4,0.4,2.7,1.4,3.7c1,1,2.1,1.5,3.4,1.5c1.3,0,2.4-0.5,3.4-1.5
			c1-1,1.4-2.2,1.4-3.7s-0.4-2.7-1.4-3.7c-1-1-2.1-1.5-3.4-1.5c-1.3,0-2.4,0.5-3.4,1.5C57.5,14.3,57.1,15.5,57.1,16.9z"/>
		<path class="st0" d="M74.1,22.8V11.2c0-0.1,0.1-0.3,0.2-0.4c0.1-0.1,0.3-0.2,0.4-0.2s0.3,0.1,0.4,0.2c0.1,0.1,0.2,0.3,0.2,0.4v2.9
			c0.1-0.1,0.1-0.2,0.2-0.3c1.3-2.1,3.1-3.2,5.2-3.2c0.1,0,0.3,0.1,0.4,0.2c0.1,0.1,0.2,0.3,0.2,0.4s-0.1,0.3-0.2,0.4
			c-0.1,0.1-0.3,0.2-0.4,0.2c-1.4,0-2.7,0.7-3.8,2.1c-0.7,0.8-1.2,1.8-1.5,3c0,0.1-0.1,0.1-0.1,0.2V23c0,0.1-0.1,0.3-0.2,0.4
			c-0.1,0.1-0.3,0.2-0.4,0.2s-0.3-0.1-0.4-0.2C74.2,23.1,74.1,23,74.1,22.8z"/>
		<path class="st0" d="M97.2,16.6L97.2,16.6c0,0.2-0.1,0.4-0.2,0.5c-0.1,0.1-0.3,0.1-0.4,0.1H86c0.1,1.4,0.6,2.6,1.5,3.5
			c1,1,2.1,1.4,3.5,1.4c0.9,0,1.7-0.2,2.4-0.7c0.7-0.4,1.3-1,1.8-1.7c0.2-0.4,0.5-0.4,0.8-0.2c0.4,0.2,0.4,0.5,0.2,0.9
			c-0.6,0.9-1.3,1.6-2.2,2.1c-1,0.5-1.9,0.8-3,0.8c-1.8,0-3.2-0.7-4.4-1.9c-1.3-1.3-1.8-2.8-1.8-4.6c0-1.8,0.6-3.3,1.8-4.6
			s2.7-1.9,4.4-1.9c1.7,0,3.2,0.6,4.4,1.7C96.4,13.4,97.1,14.9,97.2,16.6z M94.1,12.9c-0.9-0.8-2-1.2-3.2-1.2
			c-1.2,0-2.3,0.4-3.2,1.2c-0.9,0.8-1.5,1.8-1.8,3h9.8C95.7,14.8,95.1,13.8,94.1,12.9z"/>
		<path class="st0" d="M113.3,16.6L113.3,16.6c0,0.2-0.1,0.4-0.2,0.5c-0.1,0.1-0.3,0.1-0.4,0.1H102c0.1,1.4,0.6,2.6,1.5,3.5
			c1,1,2.1,1.4,3.5,1.4c0.9,0,1.7-0.2,2.4-0.7c0.7-0.4,1.3-1,1.8-1.7c0.2-0.4,0.5-0.4,0.8-0.2c0.4,0.2,0.4,0.5,0.2,0.9
			c-0.6,0.9-1.3,1.6-2.2,2.1c-1,0.5-1.9,0.8-3,0.8c-1.8,0-3.2-0.7-4.4-1.9c-1.3-1.3-1.8-2.8-1.8-4.6c0-1.8,0.6-3.3,1.8-4.6
			s2.7-1.9,4.4-1.9c1.7,0,3.2,0.6,4.4,1.7C112.5,13.4,113.2,14.9,113.3,16.6z M110.2,12.9c-0.9-0.8-2-1.2-3.2-1.2s-2.3,0.4-3.2,1.2
			c-0.9,0.8-1.5,1.8-1.8,3h9.8C111.7,14.8,111.2,13.8,110.2,12.9z"/>
		<path class="st0" d="M119.1,22.9c-0.1,0.4-0.3,0.5-0.6,0.5h-0.1c-0.2-0.1-0.4-0.1-0.4-0.4V23v-0.1V11.1c0-0.1,0.1-0.3,0.2-0.4
			c0.1-0.1,0.3-0.2,0.4-0.2s0.3,0.1,0.4,0.2s0.1,0.3,0.1,0.4v1.3c1-1.3,2.4-1.8,3.8-1.8s2.8,0.5,3.8,1.5c1,1,1.5,2.3,1.5,3.7v7
			c0,0.1-0.1,0.3-0.2,0.4c-0.1,0.1-0.3,0.2-0.4,0.2s-0.3-0.1-0.4-0.2s-0.2-0.3-0.2-0.4v-7c0-1.1-0.4-2-1.2-2.8
			c-0.7-0.8-1.7-1.2-2.8-1.2c-1.1,0-2.1,0.4-2.8,1.2c-0.8,0.7-1.2,1.7-1.2,2.8L119.1,22.9L119.1,22.9z"/>
		<g>
			<path class="st0" d="M68.3,46.5h-0.1c-0.3,0-0.4-0.1-0.5-0.4l0,0l-3-7.2l-2.9,7.2c0,0,0,0,0,0.1c-0.1,0.3-0.3,0.4-0.6,0.4
				c-0.1,0-0.3,0-0.4-0.1c-0.1-0.1-0.2-0.1-0.3-0.3l-4.9-11.6c-0.1-0.1-0.1-0.3,0-0.4c0.1-0.4,0.4-0.5,0.8-0.4
				c0.1,0.1,0.3,0.2,0.3,0.4l4.3,10.2l2.9-7.1c0.1-0.3,0.3-0.4,0.6-0.4S65,37,65,37.2l2.9,7.1l4.3-10.2c0.1-0.1,0.2-0.3,0.4-0.4
				s0.3-0.1,0.4,0s0.3,0.2,0.3,0.4c0.1,0.1,0.1,0.3,0,0.4l-4.8,11.5C68.5,46.2,68.4,46.3,68.3,46.5C68.4,46.5,68.4,46.5,68.3,46.5z"
				/>
			<path class="st0" d="M90.6,39.6L90.6,39.6c0,0.2-0.1,0.4-0.2,0.5c-0.1,0.1-0.3,0.1-0.4,0.1H79.3c0.1,1.4,0.6,2.6,1.5,3.5
				c1,1,2.1,1.4,3.5,1.4c0.9,0,1.7-0.2,2.4-0.7s1.3-1,1.8-1.7c0.2-0.4,0.5-0.4,0.8-0.2c0.4,0.2,0.4,0.5,0.2,0.9
				c-0.6,0.9-1.3,1.6-2.2,2.1c-1,0.5-1.9,0.8-3,0.8c-1.8,0-3.2-0.7-4.4-1.9c-1.3-1.3-1.8-2.8-1.8-4.6s0.6-3.3,1.8-4.6
				s2.7-1.9,4.4-1.9c1.7,0,3.2,0.6,4.4,1.7C89.9,36.4,90.6,37.9,90.6,39.6z M87.6,36c-0.9-0.8-2-1.2-3.2-1.2c-1.2,0-2.3,0.4-3.2,1.2
				c-0.9,0.8-1.5,1.8-1.8,3h9.8C89.1,37.8,88.5,36.8,87.6,36z"/>
			<path class="st0" d="M106.7,39.6L106.7,39.6c0,0.2-0.1,0.4-0.2,0.5c-0.1,0.1-0.3,0.1-0.4,0.1H95.4c0.1,1.4,0.6,2.6,1.5,3.5
				c1,1,2.1,1.4,3.5,1.4c0.9,0,1.7-0.2,2.4-0.7s1.3-1,1.8-1.7c0.2-0.4,0.5-0.4,0.8-0.2c0.4,0.2,0.4,0.5,0.2,0.9
				c-0.6,0.9-1.3,1.6-2.2,2.1c-1,0.5-1.9,0.8-3,0.8c-1.8,0-3.2-0.7-4.4-1.9c-1.3-1.3-1.8-2.8-1.8-4.6s0.6-3.3,1.8-4.6
				s2.7-1.9,4.4-1.9c1.7,0,3.2,0.6,4.4,1.7C106,36.4,106.6,37.9,106.7,39.6z M103.7,36c-0.9-0.8-2-1.2-3.2-1.2
				c-1.2,0-2.3,0.4-3.2,1.2c-0.9,0.8-1.5,1.8-1.8,3h9.8C105.2,37.8,104.6,36.8,103.7,36z"/>
			<path class="st0" d="M111.2,45.9V28.7c0-0.1,0.1-0.3,0.2-0.4c0.1-0.1,0.3-0.2,0.4-0.2c0.1,0,0.3,0.1,0.4,0.2
				c0.1,0.1,0.2,0.3,0.2,0.4v12.5l7.7-7.6c0.3-0.3,0.6-0.3,0.9,0c0.1,0.1,0.2,0.3,0.2,0.4s-0.1,0.3-0.2,0.4l-5,5l5,6.1
				c0.3,0.3,0.2,0.6-0.1,1c-0.1,0.1-0.3,0.1-0.4,0.1c-0.2,0-0.4-0.1-0.4-0.2l-4.9-6l-2.7,2.7v2.9c0,0.1-0.1,0.3-0.2,0.4
				c-0.1,0.1-0.3,0.2-0.4,0.2c-0.1,0-0.3-0.1-0.4-0.2C111.3,46.2,111.2,46,111.2,45.9z"/>
		</g>
	</g>
</g>
</svg>
