<?xml version="1.0" encoding="utf-8"?>
<!-- Generator: Adobe Illustrator 16.0.0, SVG Export Plug-In . SVG Version: 6.00 Build 0)  -->
<!DOCTYPE svg PUBLIC "-//W3C//DTD SVG 1.1//EN" "http://www.w3.org/Graphics/SVG/1.1/DTD/svg11.dtd">
<svg version="1.1" id="Layer_1" xmlns="http://www.w3.org/2000/svg" xmlns:xlink="http://www.w3.org/1999/xlink" x="0px" y="0px"
	 width="318.783px" height="56.369px" viewBox="0 0 318.783 56.369" enable-background="new 0 0 318.783 56.369"
	 xml:space="preserve">
<path fill="#FFFFFF" d="M47.996,12.776L26.681,0.47c-1.085-0.627-2.491-0.627-3.578,0L1.788,12.775
	c-1.104,0.639-1.789,1.827-1.788,3.1v24.612c0,1.272,0.686,2.46,1.788,3.098L23.103,55.89c0.543,0.314,1.162,0.479,1.789,0.479
	s1.247-0.165,1.789-0.479l21.314-12.306c1.102-0.637,1.789-1.821,1.79-3.099V15.873C49.784,14.599,49.098,13.414,47.996,12.776
	 M35.678,41.822c-0.295,0.298-0.688,0.444-1.199,0.444h-0.134c-1.907,0-3.458-0.629-4.739-1.922
	c-1.283-1.293-1.907-2.84-1.907-4.729l-0.034-6.277c0-0.888-0.334-1.69-0.966-2.325c-1.279-1.278-3.429-1.244-4.678-0.02
	c-0.635,0.622-0.971,1.435-0.971,2.349v7.626c0,0.506-0.148,0.896-0.455,1.194c-0.311,0.304-0.71,0.448-1.222,0.448
	c-0.511,0-0.905-0.146-1.203-0.446c-0.295-0.292-0.441-0.687-0.441-1.196V13.785c0-0.507,0.144-0.9,0.442-1.201
	c0.298-0.3,0.691-0.446,1.202-0.446c0.511,0,0.911,0.148,1.223,0.452c0.306,0.297,0.454,0.688,0.454,1.195v9.793
	c0.274-0.155,0.568-0.301,0.851-0.402c0.915-0.326,1.608-0.453,2.473-0.453c1.887,0,3.434,0.624,4.728,1.908
	c1.291,1.284,1.918,2.824,1.918,4.71v6.273c0,0.91,0.334,1.729,0.966,2.359c0.632,0.633,1.448,0.967,2.359,0.967h0.134
	c0.506,0,0.896,0.149,1.194,0.455c0.303,0.312,0.449,0.713,0.449,1.225C36.122,41.131,35.977,41.522,35.678,41.822"/>
<path fill="#FFFFFF" d="M67.031,22.041c-1.415,0-2.74,0.366-3.938,1.088c-0.514,0.309-0.982,0.666-1.402,1.069v-8.302
	c0-0.72-0.477-1.205-1.187-1.205s-1.188,0.485-1.188,1.205v23.662c0,0.563,0.373,1.135,1.276,1.135c0.546,0,1.099-0.373,1.099-1.205
	l-0.001-9.941c0.063-1.424,0.6-2.603,1.644-3.606c1.043-1.002,2.263-1.488,3.732-1.488c1.463,0,2.681,0.507,3.723,1.548
	c1.041,1.042,1.548,2.271,1.548,3.758v9.729c0,0.721,0.484,1.205,1.205,1.205c0.33,0,0.635-0.141,0.861-0.396
	c0.202-0.23,0.309-0.511,0.309-0.811v-9.729c0-2.133-0.757-3.972-2.25-5.466C70.968,22.798,69.14,22.041,67.031,22.041"/>
<path fill="#FFFFFF" d="M89.151,22.042c-2.444,0-4.554,0.927-6.27,2.757c-1.702,1.815-2.565,4.025-2.565,6.568
	s0.863,4.753,2.565,6.567c1.715,1.83,3.825,2.758,6.27,2.758c2.442,0,4.558-0.928,6.286-2.756c1.715-1.816,2.584-4.027,2.584-6.569
	c0-2.543-0.869-4.753-2.585-6.571C93.708,22.967,91.593,22.042,89.151,22.042 M89.151,38.315c-1.783,0-3.271-0.66-4.546-2.021
	c-1.288-1.373-1.914-2.985-1.914-4.93c0-1.945,0.626-3.557,1.914-4.93c1.275-1.359,2.763-2.02,4.546-2.02
	c1.784,0,3.277,0.662,4.564,2.023c1.299,1.373,1.931,2.984,1.931,4.927c0,1.942-0.632,3.555-1.931,4.927
	C92.428,37.653,90.936,38.315,89.151,38.315"/>
<path fill="#FFFFFF" d="M111.025,22.041c-1.417,0-2.737,0.367-3.924,1.09c-0.506,0.307-0.967,0.66-1.381,1.056v-0.976
	c0-0.7-0.477-1.17-1.187-1.17s-1.188,0.47-1.188,1.17v16.347c0,0.16,0.037,0.315,0.108,0.453c0.09,0.313,0.326,0.512,0.585,0.581
	c0.113,0.064,0.241,0.101,0.373,0.101h0.139c0.701,0,1.17-0.484,1.17-1.205v-9.766c0-1.486,0.511-2.714,1.563-3.754
	c1.054-1.044,2.279-1.551,3.742-1.551s2.681,0.507,3.723,1.548c1.041,1.042,1.548,2.271,1.548,3.759v9.764
	c0,0.722,0.477,1.205,1.187,1.205s1.188-0.483,1.188-1.205v-9.764c0-2.112-0.757-3.938-2.25-5.432
	C114.926,22.798,113.111,22.041,111.025,22.041"/>
<path fill="#FFFFFF" d="M139.144,24.526c-1.713-1.649-3.808-2.485-6.226-2.485c-2.428,0-4.546,0.919-6.297,2.733
	c-1.739,1.802-2.645,4.015-2.695,6.607c0.05,2.541,0.956,4.742,2.695,6.544c1.748,1.811,3.893,2.741,6.378,2.768h0.007
	c1.528,0,2.98-0.395,4.315-1.17c1.323-0.77,2.403-1.799,3.195-3.035c0.248-0.356,0.254-0.68,0.215-0.889s-0.164-0.513-0.538-0.764
	c-0.226-0.148-0.46-0.225-0.696-0.225c-0.216,0-0.626,0.067-0.972,0.565c-0.585,0.96-1.373,1.732-2.344,2.296
	c-0.964,0.561-2.032,0.846-3.166,0.846c-1.863-0.022-3.413-0.697-4.738-2.066c-1.177-1.214-1.819-2.605-1.95-4.238h14.484
	c0.476,0,1.03-0.274,1.159-1.047c0.007-0.041,0.011-0.082,0.011-0.124l-0.002-0.194C141.803,28.228,140.849,26.168,139.144,24.526
	 M126.479,29.672c0.32-1.367,1.005-2.515,2.078-3.49c1.282-1.165,2.732-1.731,4.432-1.731c1.699,0,3.141,0.566,4.41,1.728
	c1.064,0.976,1.745,2.125,2.064,3.493H126.479z"/>
<path fill="#FFFFFF" d="M160.103,22.298c-0.057-0.058-0.19-0.14-0.263-0.176c-0.104-0.053-0.326-0.081-0.444-0.081
	c-0.299,0-0.578,0.107-0.813,0.312c-0.324,0.287-0.392,0.606-0.392,0.824l0.001,10.047c-0.063,1.402-0.584,2.566-1.596,3.558
	c-1.007,0.985-2.192,1.466-3.623,1.466c-1.43,0-2.631-0.501-3.672-1.533c-1.039-1.027-1.545-2.238-1.545-3.701v-9.766
	c0-0.298-0.106-0.577-0.311-0.811c-0.225-0.254-0.53-0.394-0.859-0.394c-0.72,0-1.205,0.485-1.205,1.205v9.766
	c0,2.088,0.751,3.897,2.232,5.379c1.48,1.479,3.302,2.23,5.413,2.23c1.391,0,2.691-0.354,3.865-1.05
	c0.478-0.283,0.911-0.608,1.3-0.976v0.364c0,1.793-0.615,3.28-1.88,4.545c-1.266,1.267-2.752,1.882-4.545,1.882
	c-0.949,0-1.896-0.232-2.839-0.703c-0.636-0.289-1.262-0.035-1.515,0.57c-0.211,0.396-0.177,0.721-0.108,0.928
	c0.07,0.213,0.245,0.502,0.627,0.66c1.221,0.609,2.511,0.92,3.835,0.92c2.437,0,4.535-0.871,6.237-2.586
	c1.701-1.713,2.562-3.805,2.562-6.216V23.246C160.565,22.921,160.414,22.611,160.103,22.298"/>
<path fill="#FFFFFF" d="M176.696,23.916c1.951,0,3.648,0.548,5.063,1.642c0.149,0.094,0.296,0.142,0.433,0.142
	c0.145,0,0.352-0.052,0.521-0.301c0.217-0.32,0.188-0.658-0.104-0.949c-1.604-1.266-3.582-1.909-5.879-1.909
	c-2.307,0-4.373,0.872-6.141,2.591c-1.77,1.719-2.665,3.816-2.665,6.234c0,2.419,0.896,4.511,2.665,6.218
	c1.768,1.706,3.919,2.583,6.4,2.606h0.002c2.078,0,3.967-0.642,5.638-1.928c0.278-0.277,0.291-0.623,0.037-0.945
	c-0.256-0.322-0.573-0.402-0.927-0.164c-1.439,1.104-3.037,1.662-4.748,1.662c-2.139,0-3.975-0.734-5.46-2.187
	c-1.482-1.448-2.232-3.22-2.232-5.264s0.75-3.814,2.232-5.263C173.021,24.651,174.757,23.916,176.696,23.916"/>
<path fill="#FFFFFF" d="M197.017,22.542c-2.303,0-4.289,0.875-5.906,2.599c-1.611,1.719-2.43,3.813-2.43,6.226
	s0.817,4.507,2.43,6.227c1.617,1.726,3.604,2.599,5.906,2.599c2.299,0,4.291-0.873,5.922-2.598c1.623-1.721,2.446-3.816,2.446-6.228
	c0-2.412-0.823-4.507-2.446-6.227C201.308,23.416,199.313,22.542,197.017,22.542 M197.017,38.815c-1.902,0-3.556-0.732-4.912-2.178
	c-1.359-1.449-2.049-3.224-2.049-5.271c0-2.049,0.688-3.822,2.049-5.272c1.356-1.445,3.01-2.178,4.912-2.178
	c1.9,0,3.56,0.733,4.928,2.179c1.371,1.45,2.065,3.223,2.065,5.271c0,2.048-0.694,3.82-2.065,5.271
	C200.575,38.083,198.917,38.815,197.017,38.815"/>
<path fill="#FFFFFF" d="M231.771,22.541c-1.517,0-2.9,0.434-4.117,1.289c-1.043,0.733-1.836,1.671-2.357,2.792
	c-0.521-1.121-1.314-2.059-2.357-2.793c-1.219-0.854-2.545-1.288-3.942-1.288c-1.394,0-2.654,0.336-3.75,0.999
	c-0.845,0.51-1.556,1.166-2.125,1.959v-2.253c0-0.441-0.25-0.705-0.67-0.705s-0.67,0.264-0.67,0.705l0.002,5.604
	c-0.05,0.387-0.072,0.672-0.072,0.871v9.764c0,0.377,0.215,0.633,0.636,0.705h0.104c0.146,0,0.278-0.051,0.39-0.146l0.035-0.02
	c0.061-0.028,0.105-0.082,0.126-0.145l0.106-0.314c0.009-0.025,0.013-0.053,0.013-0.08V29.483c0.045-1.534,0.631-2.859,1.744-3.939
	c1.112-1.08,2.467-1.628,4.024-1.628c1.557,0,2.916,0.57,4.043,1.694c1.123,1.125,1.692,2.509,1.692,4.112v9.766
	c0,0.44,0.25,0.705,0.671,0.705c0.205,0,0.385-0.071,0.525-0.213c0.023-0.023,0.044-0.053,0.057-0.084l0.059-0.146
	C226,39.649,226,39.53,226,39.485V29.483c0.046-1.535,0.633-2.861,1.745-3.939c1.113-1.08,2.467-1.628,4.025-1.628
	c1.556,0,2.908,0.569,4.021,1.693c1.114,1.124,1.679,2.507,1.679,4.113v9.766c0,0.185,0.071,0.351,0.215,0.492
	c0.143,0.142,0.308,0.213,0.49,0.213c0.42,0,0.67-0.265,0.67-0.705v-9.766c0-1.973-0.695-3.681-2.064-5.076
	C235.403,23.249,233.719,22.541,231.771,22.541"/>
<path fill="#FFFFFF" d="M253.854,22.542c-1.627,0-3.141,0.449-4.494,1.336c-1.077,0.706-1.963,1.604-2.642,2.68V15.966
	c0-0.172-0.063-0.341-0.194-0.507c-0.144-0.178-0.303-0.268-0.476-0.268c-0.44,0-0.705,0.29-0.705,0.775v23.52
	c0,0.441,0.265,0.705,0.705,0.705c0.188,0,0.356-0.076,0.489-0.228c0.12-0.141,0.181-0.301,0.181-0.478v-3.289
	c0.679,1.062,1.563,1.953,2.642,2.658c1.354,0.887,2.865,1.336,4.494,1.336c2.369,0,4.414-0.881,6.078-2.614
	c1.659-1.731,2.502-3.833,2.502-6.246c0-2.411-0.843-4.501-2.504-6.211C258.269,23.408,256.222,22.542,253.854,22.542
	 M253.871,38.815c-1.961,0-3.66-0.738-5.052-2.197c-1.395-1.46-2.102-3.238-2.102-5.287v-0.307c0.067-1.955,0.809-3.646,2.201-5.027
	s3.076-2.081,5.004-2.081s3.616,0.728,5.02,2.165c1.404,1.438,2.115,3.204,2.115,5.25c0,2.049-0.713,3.827-2.117,5.287
	C257.54,38.077,255.834,38.815,253.871,38.815"/>
<path fill="#FFFFFF" d="M281.94,24.887c-1.617-1.557-3.596-2.346-5.879-2.346c-2.287,0-4.287,0.868-5.938,2.579
	c-1.648,1.71-2.509,3.811-2.555,6.251c0.046,2.409,0.904,4.498,2.555,6.207c1.648,1.71,3.677,2.589,6.021,2.614h0.004
	c1.438,0,2.804-0.371,4.062-1.104c1.252-0.729,2.275-1.703,3.036-2.891c0.12-0.172,0.164-0.344,0.133-0.508
	c-0.032-0.17-0.141-0.317-0.321-0.438c-0.144-0.095-0.283-0.144-0.42-0.144c-0.146,0-0.355,0.056-0.547,0.326
	c-0.627,1.032-1.475,1.862-2.52,2.469c-1.04,0.604-2.192,0.912-3.422,0.912c-1.978-0.022-3.689-0.77-5.092-2.217
	c-1.371-1.414-2.082-3.125-2.115-5.089h15.009c0.356,0,0.601-0.229,0.67-0.67l-0.001-0.159
	C284.456,28.391,283.554,26.441,281.94,24.887 M283.213,30.172h-14.194c0.269-1.722,1.058-3.188,2.348-4.36
	c1.359-1.235,2.963-1.861,4.768-1.861s3.401,0.625,4.747,1.86C282.159,26.984,282.942,28.449,283.213,30.172"/>
<path fill="#FFFFFF" d="M299.494,22.541c-2.736,0-5.104,1.462-7.033,4.345c-0.219,0.323-0.429,0.675-0.627,1.053v-4.693
	c0-0.441-0.25-0.705-0.67-0.705c-0.188,0-0.354,0.078-0.487,0.226c-0.121,0.138-0.183,0.3-0.183,0.479l0.008,7.954
	c-0.031,0.122-0.033,0.227-0.008,0.314v7.971c0,0.441,0.25,0.705,0.67,0.705s0.67-0.264,0.67-0.705v-7.971
	c1.772-5.02,4.351-7.563,7.66-7.563c0.44,0,0.705-0.264,0.705-0.705S299.937,22.541,299.494,22.541"/>
<path fill="#FFFFFF" d="M317.443,31.918c-0.351-0.324-0.854-0.618-1.496-0.871c-0.617-0.245-1.144-0.431-1.562-0.551
	c-0.411-0.117-1.17-0.302-2.323-0.563c-1.104-0.25-2.08-0.584-2.904-0.996c-0.988-0.473-1.47-1.233-1.47-2.331
	c0-0.831,0.4-1.52,1.226-2.105c0.839-0.597,1.862-0.899,3.041-0.899c1.812,0,3.308,0.576,4.441,1.71
	c0.175,0.177,0.396,0.247,0.639,0.19c0.16-0.037,0.377-0.145,0.505-0.441c0.111-0.258,0.068-0.505-0.093-0.661
	c-0.382-0.559-1.209-1.093-2.523-1.629c-0.919-0.385-2.035-0.58-3.317-0.58c-1.312,0-2.534,0.43-3.636,1.277
	c-1.121,0.862-1.688,1.912-1.688,3.121c0,1.202,0.438,2.212,1.305,3.001c0.328,0.306,0.816,0.588,1.491,0.869
	c0.661,0.276,1.164,0.459,1.538,0.556c0.361,0.094,0.978,0.239,1.845,0.438c0.853,0.194,1.693,0.423,2.493,0.675
	c0.571,0.197,1.144,0.546,1.703,1.037c0.482,0.421,0.719,1.023,0.719,1.842c0,1.043-0.51,1.915-1.558,2.666
	c-1.061,0.76-2.36,1.145-3.862,1.145c-0.944,0-1.913-0.2-2.881-0.594c-0.978-0.397-1.659-0.736-2.028-1.004
	c-0.388-0.281-0.638-0.477-0.767-0.596c-0.208-0.189-0.44-0.25-0.671-0.175c-0.146,0.05-0.345,0.172-0.451,0.468
	c-0.092,0.255-0.026,0.509,0.182,0.716c0.673,0.675,1.772,1.317,3.272,1.912c1.118,0.429,2.243,0.646,3.344,0.646
	c1.891,0,3.514-0.5,4.822-1.483c1.332-1.003,2.008-2.194,2.008-3.543C318.783,33.825,318.332,32.731,317.443,31.918"/>
</svg>
