<svg xmlns="http://www.w3.org/2000/svg" width="49.785" height="56.371" viewBox="0 0 49.785 56.371"><path d="M47.996 12.776L26.682.47a3.64 3.64 0 0 0-3.579 0L1.788 12.775A3.59 3.59 0 0 0 0 15.875v24.612c0 1.271.686 2.46 1.788 3.099L23.103 55.89a3.578 3.578 0 0 0 3.579 0l21.313-12.307a3.587 3.587 0 0 0 1.79-3.099V15.873a3.592 3.592 0 0 0-1.789-3.097M35.678 41.822c-.295.299-.688.444-1.199.444h-.133c-1.908 0-3.459-.629-4.74-1.923-1.282-1.293-1.906-2.84-1.906-4.729l-.034-6.277c0-.888-.334-1.69-.966-2.325-1.279-1.278-3.429-1.244-4.678-.02-.635.622-.971 1.435-.971 2.349v7.625c0 .507-.148.896-.455 1.195-.311.303-.71.447-1.222.447-.511 0-.905-.146-1.203-.445-.295-.293-.441-.688-.441-1.197V13.785c0-.507.144-.9.442-1.201.298-.3.691-.446 1.202-.446s.911.148 1.223.452c.306.297.454.688.454 1.195v9.793c.274-.155.568-.301.851-.402.915-.326 1.608-.453 2.473-.453 1.888 0 3.435.624 4.728 1.908 1.291 1.284 1.918 2.824 1.918 4.71v6.273c0 .909.334 1.729.967 2.358a3.261 3.261 0 0 0 2.359.967h.133c.506 0 .896.147 1.194.455.304.312.449.713.449 1.226-.001.51-.146.902-.445 1.202"/></svg>