<svg id="Layer_1" xmlns="http://www.w3.org/2000/svg" viewBox="0 0 128.4 57"><style>.st0{fill:#fff}</style><path class="st0" d="M48 13.1L26.7.8c-1.1-.6-2.5-.6-3.6 0L1.8 13.1C.7 13.7 0 14.9 0 16.2v24.6c0 1.3.7 2.5 1.8 3.1l21.3 12.3c.5.3 1.2.5 1.8.5s1.2-.2 1.8-.5L48 43.9c1.1-.6 1.8-1.8 1.8-3.1V16.2c0-1.3-.7-2.5-1.8-3.1m-12.3 29c-.3.3-.7.4-1.2.4h-.1c-1.9 0-3.5-.6-4.7-1.9-1.3-1.3-1.9-2.8-1.9-4.7v-6.3c0-.9-.3-1.7-1-2.3-1.3-1.3-3.4-1.2-4.7 0-.6.6-1 1.4-1 2.3v7.7c0 .5-.1.9-.5 1.2-.3.3-.7.4-1.2.4s-.9-.1-1.2-.4c-.3-.3-.4-.7-.4-1.2V14.1c0-.5.1-.9.4-1.2s.7-.4 1.2-.4.9.1 1.2.5c.3.3.5.7.5 1.2V24c.3-.2.6-.3.9-.4.9-.3 1.6-.5 2.5-.5 1.9 0 3.4.6 4.7 1.9s1.9 2.8 1.9 4.7V36c0 .9.3 1.7 1 2.4.6.6 1.4 1 2.4 1h.1c.5 0 .9.1 1.2.5.3.3.4.7.4 1.2-.1.3-.2.7-.5 1M68 11.2v11.3c0 1.7-.6 3.1-1.8 4.3-1.2 1.2-2.7 1.8-4.4 1.8-.9 0-1.8-.2-2.7-.6-.4-.2-.4-.5-.3-.8.2-.4.4-.5.8-.3.7.3 1.4.4 2.1.4 1.3 0 2.5-.4 3.4-1.4 1-1 1.4-2.1 1.4-3.4V21c-.5.8-1.3 1.4-2.1 1.8s-1.7.6-2.7.6c-1.7 0-3.1-.7-4.3-1.9-1.2-1.3-1.8-2.8-1.8-4.6s.6-3.2 1.8-4.6c1.2-1.3 2.6-1.9 4.3-1.9 1 0 1.8.2 2.7.7.9.4 1.5 1.1 2.1 1.8V11c0-.1.1-.3.2-.4.1-.1.3-.2.4-.2.1 0 .3.1.4.2.4.2.5.4.5.6zm-10.9 5.7c0 1.4.4 2.7 1.4 3.7 1 1 2.1 1.5 3.4 1.5 1.3 0 2.4-.5 3.4-1.5s1.4-2.2 1.4-3.7-.4-2.7-1.4-3.7c-1-1-2.1-1.5-3.4-1.5-1.3 0-2.4.5-3.4 1.5-1 1.1-1.4 2.3-1.4 3.7zM74.1 22.8V11.2c0-.1.1-.3.2-.4.1-.1.3-.2.4-.2s.3.1.4.2c.1.1.2.3.2.4v2.9c.1-.1.1-.2.2-.3 1.3-2.1 3.1-3.2 5.2-3.2.1 0 .3.1.4.2.1.1.2.3.2.4s-.1.3-.2.4c-.1.1-.3.2-.4.2-1.4 0-2.7.7-3.8 2.1-.7.8-1.2 1.8-1.5 3 0 .1-.1.1-.1.2V23c0 .1-.1.3-.2.4-.1.1-.3.2-.4.2s-.3-.1-.4-.2c-.1-.3-.2-.4-.2-.6zM97.2 16.6c0 .2-.1.4-.2.5-.1.1-.3.1-.4.1H86c.1 1.4.6 2.6 1.5 3.5 1 1 2.1 1.4 3.5 1.4.9 0 1.7-.2 2.4-.7.7-.4 1.3-1 1.8-1.7.2-.4.5-.4.8-.2.4.2.4.5.2.9-.6.9-1.3 1.6-2.2 2.1-1 .5-1.9.8-3 .8-1.8 0-3.2-.7-4.4-1.9-1.3-1.3-1.8-2.8-1.8-4.6 0-1.8.6-3.3 1.8-4.6s2.7-1.9 4.4-1.9c1.7 0 3.2.6 4.4 1.7 1 1.4 1.7 2.9 1.8 4.6zm-3.1-3.7c-.9-.8-2-1.2-3.2-1.2-1.2 0-2.3.4-3.2 1.2-.9.8-1.5 1.8-1.8 3h9.8c0-1.1-.6-2.1-1.6-3zM113.3 16.6c0 .2-.1.4-.2.5-.1.1-.3.1-.4.1H102c.1 1.4.6 2.6 1.5 3.5 1 1 2.1 1.4 3.5 1.4.9 0 1.7-.2 2.4-.7.7-.4 1.3-1 1.8-1.7.2-.4.5-.4.8-.2.4.2.4.5.2.9-.6.9-1.3 1.6-2.2 2.1-1 .5-1.9.8-3 .8-1.8 0-3.2-.7-4.4-1.9-1.3-1.3-1.8-2.8-1.8-4.6 0-1.8.6-3.3 1.8-4.6s2.7-1.9 4.4-1.9c1.7 0 3.2.6 4.4 1.7 1.1 1.4 1.8 2.9 1.9 4.6zm-3.1-3.7c-.9-.8-2-1.2-3.2-1.2s-2.3.4-3.2 1.2c-.9.8-1.5 1.8-1.8 3h9.8c-.1-1.1-.6-2.1-1.6-3zM119.1 22.9c-.1.4-.3.5-.6.5h-.1c-.2-.1-.4-.1-.4-.4V11.1c0-.1.1-.3.2-.4.1-.1.3-.2.4-.2s.3.1.4.2.1.3.1.4v1.3c1-1.3 2.4-1.8 3.8-1.8s2.8.5 3.8 1.5 1.5 2.3 1.5 3.7v7c0 .1-.1.3-.2.4-.1.1-.3.2-.4.2s-.3-.1-.4-.2-.2-.3-.2-.4v-7c0-1.1-.4-2-1.2-2.8-.7-.8-1.7-1.2-2.8-1.2-1.1 0-2.1.4-2.8 1.2-.8.7-1.2 1.7-1.2 2.8l.1 7.1zM68.3 46.5h-.1c-.3 0-.4-.1-.5-.4l-3-7.2-2.9 7.2v.1c-.1.3-.3.4-.6.4-.1 0-.3 0-.4-.1-.1-.1-.2-.1-.3-.3l-4.9-11.6c-.1-.1-.1-.3 0-.4.1-.4.4-.5.8-.4.1.1.3.2.3.4L61 44.4l2.9-7.1c.1-.3.3-.4.6-.4s.5.1.5.3l2.9 7.1 4.3-10.2c.1-.1.2-.3.4-.4s.3-.1.4 0 .3.2.3.4c.1.1.1.3 0 .4L68.5 46c0 .2-.1.3-.2.5.1 0 .1 0 0 0zM90.6 39.6c0 .2-.1.4-.2.5-.1.1-.3.1-.4.1H79.3c.1 1.4.6 2.6 1.5 3.5 1 1 2.1 1.4 3.5 1.4.9 0 1.7-.2 2.4-.7s1.3-1 1.8-1.7c.2-.4.5-.4.8-.2.4.2.4.5.2.9-.6.9-1.3 1.6-2.2 2.1-1 .5-1.9.8-3 .8-1.8 0-3.2-.7-4.4-1.9-1.3-1.3-1.8-2.8-1.8-4.6s.6-3.3 1.8-4.6 2.7-1.9 4.4-1.9c1.7 0 3.2.6 4.4 1.7 1.2 1.4 1.9 2.9 1.9 4.6zm-3-3.6c-.9-.8-2-1.2-3.2-1.2-1.2 0-2.3.4-3.2 1.2-.9.8-1.5 1.8-1.8 3h9.8c-.1-1.2-.7-2.2-1.6-3zM106.7 39.6c0 .2-.1.4-.2.5-.1.1-.3.1-.4.1H95.4c.1 1.4.6 2.6 1.5 3.5 1 1 2.1 1.4 3.5 1.4.9 0 1.7-.2 2.4-.7s1.3-1 1.8-1.7c.2-.4.5-.4.8-.2.4.2.4.5.2.9-.6.9-1.3 1.6-2.2 2.1-1 .5-1.9.8-3 .8-1.8 0-3.2-.7-4.4-1.9-1.3-1.3-1.8-2.8-1.8-4.6s.6-3.3 1.8-4.6 2.7-1.9 4.4-1.9c1.7 0 3.2.6 4.4 1.7 1.2 1.4 1.8 2.9 1.9 4.6zm-3-3.6c-.9-.8-2-1.2-3.2-1.2-1.2 0-2.3.4-3.2 1.2-.9.8-1.5 1.8-1.8 3h9.8c-.1-1.2-.7-2.2-1.6-3zM111.2 45.9V28.7c0-.1.1-.3.2-.4.1-.1.3-.2.4-.2.1 0 .3.1.4.2.1.1.2.3.2.4v12.5l7.7-7.6c.3-.3.6-.3.9 0 .1.1.2.3.2.4s-.1.3-.2.4l-5 5 5 6.1c.3.3.2.6-.1 1-.1.1-.3.1-.4.1-.2 0-.4-.1-.4-.2l-4.9-6-2.7 2.7V46c0 .1-.1.3-.2.4-.1.1-.3.2-.4.2-.1 0-.3-.1-.4-.2-.2-.2-.3-.4-.3-.5z"/></svg>