<svg xmlns="http://www.w3.org/2000/svg" width="318.783" height="56.369" viewBox="0 0 318.783 56.369"><path fill="#FFF" d="M47.996 12.776L26.681.47a3.638 3.638 0 0 0-3.578 0L1.788 12.775A3.59 3.59 0 0 0 0 15.875v24.612c0 1.272.686 2.46 1.788 3.098L23.103 55.89a3.578 3.578 0 0 0 3.578 0l21.314-12.306a3.59 3.59 0 0 0 1.79-3.099V15.873a3.592 3.592 0 0 0-1.789-3.097M35.678 41.822c-.295.298-.688.444-1.199.444h-.134c-1.907 0-3.458-.629-4.739-1.922-1.283-1.293-1.907-2.84-1.907-4.729l-.034-6.277c0-.888-.334-1.69-.966-2.325-1.279-1.278-3.429-1.244-4.678-.02-.635.622-.971 1.435-.971 2.349v7.626c0 .506-.148.896-.455 1.194-.311.304-.71.448-1.222.448-.511 0-.905-.146-1.203-.446-.295-.292-.441-.687-.441-1.196V13.785c0-.507.144-.9.442-1.201.298-.3.691-.446 1.202-.446s.911.148 1.223.452c.306.297.454.688.454 1.195v9.793c.274-.155.568-.301.851-.402.915-.326 1.608-.453 2.473-.453 1.887 0 3.434.624 4.728 1.908 1.291 1.284 1.918 2.824 1.918 4.71v6.273c0 .91.334 1.729.966 2.359a3.263 3.263 0 0 0 2.359.967h.134c.506 0 .896.149 1.194.455.303.312.449.713.449 1.225 0 .511-.145.902-.444 1.202M67.031 22.041c-1.415 0-2.74.366-3.938 1.088a7.889 7.889 0 0 0-1.402 1.069v-8.302c0-.72-.477-1.205-1.187-1.205s-1.188.485-1.188 1.205v23.662c0 .563.373 1.135 1.276 1.135.546 0 1.099-.373 1.099-1.205l-.001-9.941c.063-1.424.6-2.603 1.644-3.606 1.043-1.002 2.263-1.488 3.732-1.488 1.463 0 2.681.507 3.723 1.548 1.041 1.042 1.548 2.271 1.548 3.758v9.729c0 .721.484 1.205 1.205 1.205.33 0 .635-.141.861-.396.202-.23.309-.511.309-.811v-9.729c0-2.133-.757-3.972-2.25-5.466-1.494-1.493-3.322-2.25-5.431-2.25M89.151 22.042c-2.444 0-4.554.927-6.27 2.757-1.702 1.815-2.565 4.025-2.565 6.568s.863 4.753 2.565 6.567c1.715 1.83 3.825 2.758 6.27 2.758 2.442 0 4.558-.928 6.286-2.756 1.715-1.816 2.584-4.027 2.584-6.569 0-2.543-.869-4.753-2.585-6.571-1.728-1.829-3.843-2.754-6.285-2.754m0 16.273c-1.783 0-3.271-.66-4.546-2.021-1.288-1.373-1.914-2.985-1.914-4.93 0-1.945.626-3.557 1.914-4.93 1.275-1.359 2.763-2.02 4.546-2.02 1.784 0 3.277.662 4.564 2.023 1.299 1.373 1.931 2.984 1.931 4.927 0 1.942-.632 3.555-1.931 4.927-1.287 1.362-2.779 2.024-4.564 2.024M111.025 22.041a7.434 7.434 0 0 0-3.924 1.09c-.506.307-.967.66-1.381 1.056v-.976c0-.7-.477-1.17-1.187-1.17s-1.188.47-1.188 1.17v16.347c0 .16.037.315.108.453.09.313.326.512.585.581a.758.758 0 0 0 .373.101h.139c.701 0 1.17-.484 1.17-1.205v-9.766c0-1.486.511-2.714 1.563-3.754 1.054-1.044 2.279-1.551 3.742-1.551s2.681.507 3.723 1.548c1.041 1.042 1.548 2.271 1.548 3.759v9.764c0 .722.477 1.205 1.187 1.205s1.188-.483 1.188-1.205v-9.764c0-2.112-.757-3.938-2.25-5.432-1.495-1.494-3.31-2.251-5.396-2.251M139.144 24.526c-1.713-1.649-3.808-2.485-6.226-2.485-2.428 0-4.546.919-6.297 2.733-1.739 1.802-2.645 4.015-2.695 6.607.05 2.541.956 4.742 2.695 6.544 1.748 1.811 3.893 2.741 6.378 2.768h.007c1.528 0 2.98-.395 4.315-1.17a9.331 9.331 0 0 0 3.195-3.035c.248-.356.254-.68.215-.889s-.164-.513-.538-.764a1.265 1.265 0 0 0-.696-.225c-.216 0-.626.067-.972.565a6.593 6.593 0 0 1-2.344 2.296 6.22 6.22 0 0 1-3.166.846c-1.863-.022-3.413-.697-4.738-2.066-1.177-1.214-1.819-2.605-1.95-4.238h14.484c.476 0 1.03-.274 1.159-1.047a.733.733 0 0 0 .011-.124l-.002-.194c-.176-2.42-1.13-4.48-2.835-6.122m-12.665 5.146c.32-1.367 1.005-2.515 2.078-3.49 1.282-1.165 2.732-1.731 4.432-1.731 1.699 0 3.141.566 4.41 1.728 1.064.976 1.745 2.125 2.064 3.493h-12.984zM160.103 22.298a1.233 1.233 0 0 0-.263-.176c-.104-.053-.326-.081-.444-.081a1.22 1.22 0 0 0-.813.312c-.324.287-.392.606-.392.824l.001 10.047c-.063 1.402-.584 2.566-1.596 3.558-1.007.985-2.192 1.466-3.623 1.466-1.43 0-2.631-.501-3.672-1.533-1.039-1.027-1.545-2.238-1.545-3.701v-9.766c0-.298-.106-.577-.311-.811a1.137 1.137 0 0 0-.859-.394c-.72 0-1.205.485-1.205 1.205v9.766c0 2.088.751 3.897 2.232 5.379 1.48 1.479 3.302 2.23 5.413 2.23a7.476 7.476 0 0 0 3.865-1.05 7.277 7.277 0 0 0 1.3-.976v.364c0 1.793-.615 3.28-1.88 4.545-1.266 1.267-2.752 1.882-4.545 1.882-.949 0-1.896-.232-2.839-.703-.636-.289-1.262-.035-1.515.57-.211.396-.177.721-.108.928.07.213.245.502.627.66a8.528 8.528 0 0 0 3.835.92c2.437 0 4.535-.871 6.237-2.586 1.701-1.713 2.562-3.805 2.562-6.216V23.246c0-.325-.151-.635-.462-.948M176.696 23.916c1.951 0 3.648.548 5.063 1.642a.821.821 0 0 0 .433.142c.145 0 .352-.052.521-.301.217-.32.188-.658-.104-.949-1.604-1.266-3.582-1.909-5.879-1.909-2.307 0-4.373.872-6.141 2.591-1.77 1.719-2.665 3.816-2.665 6.234 0 2.419.896 4.511 2.665 6.218 1.768 1.706 3.919 2.583 6.4 2.606h.002c2.078 0 3.967-.642 5.638-1.928.278-.277.291-.623.037-.945-.256-.322-.573-.402-.927-.164-1.439 1.104-3.037 1.662-4.748 1.662-2.139 0-3.975-.734-5.46-2.187-1.482-1.448-2.232-3.22-2.232-5.264s.75-3.814 2.232-5.263c1.49-1.45 3.226-2.185 5.165-2.185M197.017 22.542c-2.303 0-4.289.875-5.906 2.599-1.611 1.719-2.43 3.813-2.43 6.226s.817 4.507 2.43 6.227c1.617 1.726 3.604 2.599 5.906 2.599 2.299 0 4.291-.873 5.922-2.598 1.623-1.721 2.446-3.816 2.446-6.228s-.823-4.507-2.446-6.227c-1.631-1.724-3.626-2.598-5.922-2.598m0 16.273c-1.902 0-3.556-.732-4.912-2.178-1.359-1.449-2.049-3.224-2.049-5.271 0-2.049.688-3.822 2.049-5.272 1.356-1.445 3.01-2.178 4.912-2.178 1.9 0 3.56.733 4.928 2.179 1.371 1.45 2.065 3.223 2.065 5.271s-.694 3.82-2.065 5.271c-1.37 1.446-3.028 2.178-4.928 2.178M231.771 22.541a7.02 7.02 0 0 0-4.117 1.289 6.977 6.977 0 0 0-2.357 2.792 6.986 6.986 0 0 0-2.357-2.793c-1.219-.854-2.545-1.288-3.942-1.288-1.394 0-2.654.336-3.75.999a7.12 7.12 0 0 0-2.125 1.959v-2.253c0-.441-.25-.705-.67-.705s-.67.264-.67.705l.002 5.604a7.22 7.22 0 0 0-.072.871v9.764c0 .377.215.633.636.705h.104a.592.592 0 0 0 .39-.146l.035-.02a.241.241 0 0 0 .126-.145l.106-.314a.24.24 0 0 0 .013-.08V29.483c.045-1.534.631-2.859 1.744-3.939 1.112-1.08 2.467-1.628 4.024-1.628s2.916.57 4.043 1.694c1.123 1.125 1.692 2.509 1.692 4.112v9.766c0 .44.25.705.671.705a.715.715 0 0 0 .525-.213.271.271 0 0 0 .057-.084l.059-.146c.062-.101.062-.22.062-.265V29.483c.046-1.535.633-2.861 1.745-3.939 1.113-1.08 2.467-1.628 4.025-1.628 1.556 0 2.908.569 4.021 1.693 1.114 1.124 1.679 2.507 1.679 4.113v9.766a.67.67 0 0 0 .215.492.68.68 0 0 0 .49.213c.42 0 .67-.265.67-.705v-9.766c0-1.973-.695-3.681-2.064-5.076-1.378-1.397-3.062-2.105-5.01-2.105M253.854 22.542a8.067 8.067 0 0 0-4.494 1.336 8.793 8.793 0 0 0-2.642 2.68V15.966a.81.81 0 0 0-.194-.507c-.144-.178-.303-.268-.476-.268-.44 0-.705.29-.705.775v23.52c0 .441.265.705.705.705a.633.633 0 0 0 .489-.228.72.72 0 0 0 .181-.478v-3.289a8.845 8.845 0 0 0 2.642 2.658 8.065 8.065 0 0 0 4.494 1.336c2.369 0 4.414-.881 6.078-2.614 1.659-1.731 2.502-3.833 2.502-6.246 0-2.411-.843-4.501-2.504-6.211-1.661-1.711-3.708-2.577-6.076-2.577m.017 16.273c-1.961 0-3.66-.738-5.052-2.197-1.395-1.46-2.102-3.238-2.102-5.287v-.307c.067-1.955.809-3.646 2.201-5.027s3.076-2.081 5.004-2.081 3.616.728 5.02 2.165c1.404 1.438 2.115 3.204 2.115 5.25 0 2.049-.713 3.827-2.117 5.287-1.4 1.459-3.106 2.197-5.069 2.197M281.94 24.887c-1.617-1.557-3.596-2.346-5.879-2.346-2.287 0-4.287.868-5.938 2.579-1.648 1.71-2.509 3.811-2.555 6.251.046 2.409.904 4.498 2.555 6.207 1.648 1.71 3.677 2.589 6.021 2.614h.004a7.969 7.969 0 0 0 4.062-1.104 8.856 8.856 0 0 0 3.036-2.891c.12-.172.164-.344.133-.508-.032-.17-.141-.317-.321-.438a.764.764 0 0 0-.42-.144c-.146 0-.355.056-.547.326a7.072 7.072 0 0 1-2.52 2.469 6.727 6.727 0 0 1-3.422.912c-1.978-.022-3.689-.77-5.092-2.217-1.371-1.414-2.082-3.125-2.115-5.089h15.009c.356 0 .601-.229.67-.67l-.001-.159c-.164-2.288-1.066-4.238-2.68-5.792m1.273 5.285h-14.194a7.266 7.266 0 0 1 2.348-4.36c1.359-1.235 2.963-1.861 4.768-1.861s3.401.625 4.747 1.86c1.277 1.173 2.06 2.638 2.331 4.361M299.494 22.541c-2.736 0-5.104 1.462-7.033 4.345-.219.323-.429.675-.627 1.053v-4.693c0-.441-.25-.705-.67-.705a.64.64 0 0 0-.487.226.71.71 0 0 0-.183.479l.008 7.954a.603.603 0 0 0-.008.314v7.971c0 .441.25.705.67.705s.67-.264.67-.705v-7.971c1.772-5.02 4.351-7.563 7.66-7.563.44 0 .705-.264.705-.705s-.262-.705-.705-.705M317.443 31.918c-.351-.324-.854-.618-1.496-.871a17.514 17.514 0 0 0-1.562-.551 51.628 51.628 0 0 0-2.323-.563c-1.104-.25-2.08-.584-2.904-.996-.988-.473-1.47-1.233-1.47-2.331 0-.831.4-1.52 1.226-2.105.839-.597 1.862-.899 3.041-.899 1.812 0 3.308.576 4.441 1.71a.654.654 0 0 0 .639.19.717.717 0 0 0 .505-.441c.111-.258.068-.505-.093-.661-.382-.559-1.209-1.093-2.523-1.629-.919-.385-2.035-.58-3.317-.58-1.312 0-2.534.43-3.636 1.277-1.121.862-1.688 1.912-1.688 3.121 0 1.202.438 2.212 1.305 3.001.328.306.816.588 1.491.869.661.276 1.164.459 1.538.556.361.094.978.239 1.845.438a31.85 31.85 0 0 1 2.493.675c.571.197 1.144.546 1.703 1.037.482.421.719 1.023.719 1.842 0 1.043-.51 1.915-1.558 2.666-1.061.76-2.36 1.145-3.862 1.145-.944 0-1.913-.2-2.881-.594-.978-.397-1.659-.736-2.028-1.004a9.594 9.594 0 0 1-.767-.596c-.208-.189-.44-.25-.671-.175a.724.724 0 0 0-.451.468c-.092.255-.026.509.182.716.673.675 1.772 1.317 3.272 1.912 1.118.429 2.243.646 3.344.646 1.891 0 3.514-.5 4.822-1.483 1.332-1.003 2.008-2.194 2.008-3.543-.004-1.34-.455-2.434-1.344-3.247"/></svg>